M48
;DRILL file {KiCad 4.0.7-e2-6376~61~ubuntu18.04.1} date Sun Sep 22 13:03:50 2019
;FORMAT={-:-/ absolute / inch / decimal}
FMAT,2
INCH,TZ
T1C0.031
T2C0.032
T3C0.035
T4C0.039
T5C0.040
%
G90
G05
M72
T1
X2.431Y-1.737
X2.739Y-2.512
X2.862Y-2.39
X2.862Y-2.391
X3.011Y-2.103
X3.411Y-2.103
X3.694Y-2.656
X3.7335Y-2.025
X3.736Y-2.225
X4.1335Y-2.025
X4.136Y-2.225
T2
X3.778Y-1.788
T3
X3.952Y-1.804
X4.052Y-1.804
X4.18Y-1.804
X4.28Y-1.804
T4
X1.9985Y-2.04
X1.9985Y-2.14
X2.0985Y-2.04
X2.0985Y-2.14
X2.1985Y-2.04
X2.1985Y-2.14
X2.2985Y-2.04
X2.2985Y-2.14
X2.3985Y-2.04
X2.3985Y-2.14
T5
X2.6535Y-2.025
X2.6535Y-2.125
X2.6535Y-2.225
X2.6535Y-2.325
X2.6535Y-2.425
X2.6535Y-2.525
X2.6535Y-2.625
X2.6535Y-2.725
X3.5535Y-2.025
X3.5535Y-2.125
X3.5535Y-2.225
X3.5535Y-2.325
X3.5535Y-2.425
X3.5535Y-2.525
X3.5535Y-2.625
X3.5535Y-2.725
T0
M30
