G04 #@! TF.FileFunction,Copper,L1,Top,Signal*
%FSLAX46Y46*%
G04 Gerber Fmt 4.6, Leading zero omitted, Abs format (unit mm)*
G04 Created by KiCad (PCBNEW 4.0.7-e2-6376~61~ubuntu18.04.1) date Sun Sep 22 13:03:15 2019*
%MOMM*%
%LPD*%
G01*
G04 APERTURE LIST*
%ADD10C,0.100000*%
%ADD11R,1.800000X1.800000*%
%ADD12C,1.800000*%
%ADD13R,1.600000X1.600000*%
%ADD14O,1.600000X1.600000*%
%ADD15C,1.998980*%
%ADD16R,1.700000X1.700000*%
%ADD17O,1.700000X1.700000*%
%ADD18C,1.600000*%
%ADD19C,1.200000*%
%ADD20C,1.200000*%
%ADD21C,0.600000*%
%ADD22C,0.254000*%
G04 APERTURE END LIST*
D10*
D11*
X108712000Y-45821600D03*
D12*
X106172000Y-45821600D03*
D11*
X102920800Y-45821600D03*
D12*
X100380800Y-45821600D03*
D13*
X86639400Y-53416200D03*
D14*
X76479400Y-53416200D03*
D15*
X95961200Y-45415200D03*
D16*
X50761900Y-51816000D03*
D17*
X50761900Y-54356000D03*
X53301900Y-51816000D03*
X53301900Y-54356000D03*
X55841900Y-51816000D03*
X55841900Y-54356000D03*
X58381900Y-51816000D03*
X58381900Y-54356000D03*
X60921900Y-51816000D03*
X60921900Y-54356000D03*
D18*
X105054400Y-56515000D03*
D14*
X94894400Y-56515000D03*
D18*
X104990900Y-51435000D03*
D14*
X94830900Y-51435000D03*
D12*
X67398900Y-51435000D03*
X67398900Y-53975000D03*
X67398900Y-56515000D03*
X67398900Y-59055000D03*
X67398900Y-61595000D03*
X67398900Y-64135000D03*
X67398900Y-66675000D03*
X67398900Y-69215000D03*
X90258900Y-69215000D03*
X90258900Y-66675000D03*
X90258900Y-64135000D03*
X90258900Y-61595000D03*
X90258900Y-59055000D03*
X90258900Y-56515000D03*
X90258900Y-53975000D03*
X90258900Y-51435000D03*
D19*
X93827600Y-67462400D03*
X72694800Y-60706000D03*
X72694800Y-60731400D03*
X69570600Y-63804800D03*
X61747400Y-44119800D03*
D20*
X81711800Y-41173400D02*
X100609400Y-41173400D01*
X102920800Y-43484800D02*
X102920800Y-45821600D01*
X100609400Y-41173400D02*
X102920800Y-43484800D01*
X81711800Y-41173400D02*
X81711800Y-51689000D01*
X81711800Y-51689000D02*
X72694800Y-60706000D01*
X72694800Y-60731400D02*
X69621400Y-63804800D01*
X69621400Y-63804800D02*
X69570600Y-63804800D01*
X81711800Y-41173400D02*
X61468000Y-41173400D01*
X61468000Y-41173400D02*
X58381900Y-44259500D01*
X58381900Y-44259500D02*
X58381900Y-51816000D01*
D21*
X50761900Y-54356000D02*
X50761900Y-66611500D01*
X93954600Y-61595000D02*
X90258900Y-61595000D01*
X96469200Y-64109600D02*
X93954600Y-61595000D01*
X96469200Y-71374000D02*
X96469200Y-64109600D01*
X93980000Y-73863200D02*
X96469200Y-71374000D01*
X89611200Y-73863200D02*
X93980000Y-73863200D01*
X85598000Y-69850000D02*
X89611200Y-73863200D01*
X75628402Y-69850000D02*
X85598000Y-69850000D01*
X71361202Y-74117200D02*
X75628402Y-69850000D01*
X58267600Y-74117200D02*
X71361202Y-74117200D01*
X50761900Y-66611500D02*
X58267600Y-74117200D01*
X64617600Y-51892200D02*
X66700400Y-53975000D01*
X64617600Y-46990000D02*
X64617600Y-51892200D01*
X61747400Y-44119800D02*
X64617600Y-46990000D01*
X66700400Y-53975000D02*
X67398900Y-53975000D01*
X66852800Y-53975000D02*
X67398900Y-53975000D01*
X53301900Y-54356000D02*
X53301900Y-63207900D01*
X88671400Y-64135000D02*
X90258900Y-64135000D01*
X85445600Y-67360800D02*
X88671400Y-64135000D01*
X74980800Y-67360800D02*
X85445600Y-67360800D01*
X70510400Y-71831200D02*
X74980800Y-67360800D01*
X61925200Y-71831200D02*
X70510400Y-71831200D01*
X53301900Y-63207900D02*
X61925200Y-71831200D01*
X55841900Y-54356000D02*
X55841900Y-61175900D01*
X58801000Y-64135000D02*
X67398900Y-64135000D01*
X55841900Y-61175900D02*
X58801000Y-64135000D01*
D22*
G36*
X111913600Y-89206000D02*
X103164092Y-89206000D01*
X90062446Y-76104354D01*
X89832105Y-75950446D01*
X89560400Y-75896400D01*
X65887600Y-75896400D01*
X65615895Y-75950446D01*
X65385554Y-76104354D01*
X52283908Y-89206000D01*
X45769600Y-89206000D01*
X45769600Y-50966000D01*
X49264460Y-50966000D01*
X49264460Y-52666000D01*
X49308738Y-52901317D01*
X49447810Y-53117441D01*
X49660010Y-53262431D01*
X49716354Y-53273841D01*
X49711846Y-53276853D01*
X49389939Y-53758622D01*
X49276900Y-54326907D01*
X49276900Y-54385093D01*
X49389939Y-54953378D01*
X49711846Y-55435147D01*
X49826900Y-55512023D01*
X49826900Y-66611500D01*
X49898073Y-66969309D01*
X50100755Y-67272645D01*
X57606455Y-74778345D01*
X57909791Y-74981027D01*
X58267600Y-75052200D01*
X71361202Y-75052200D01*
X71719011Y-74981027D01*
X72022347Y-74778345D01*
X76015692Y-70785000D01*
X85210710Y-70785000D01*
X88950055Y-74524345D01*
X89253391Y-74727027D01*
X89611200Y-74798200D01*
X93980000Y-74798200D01*
X94337809Y-74727027D01*
X94641145Y-74524345D01*
X97130345Y-72035145D01*
X97333027Y-71731809D01*
X97404200Y-71374000D01*
X97404200Y-64109600D01*
X97333027Y-63751791D01*
X97130345Y-63448455D01*
X94615745Y-60933855D01*
X94312409Y-60731173D01*
X93954600Y-60660000D01*
X91494455Y-60660000D01*
X91159718Y-60324677D01*
X91559451Y-59925643D01*
X91793633Y-59361670D01*
X91794165Y-58751009D01*
X91560968Y-58186629D01*
X91159718Y-57784677D01*
X91559451Y-57385643D01*
X91793633Y-56821670D01*
X91793900Y-56515000D01*
X93431287Y-56515000D01*
X93540520Y-57064151D01*
X93851589Y-57529698D01*
X94317136Y-57840767D01*
X94866287Y-57950000D01*
X94922513Y-57950000D01*
X95471664Y-57840767D01*
X95937211Y-57529698D01*
X96248280Y-57064151D01*
X96300984Y-56799187D01*
X103619152Y-56799187D01*
X103837157Y-57326800D01*
X104240477Y-57730824D01*
X104767709Y-57949750D01*
X105338587Y-57950248D01*
X105866200Y-57732243D01*
X106270224Y-57328923D01*
X106489150Y-56801691D01*
X106489648Y-56230813D01*
X106271643Y-55703200D01*
X105868323Y-55299176D01*
X105341091Y-55080250D01*
X104770213Y-55079752D01*
X104242600Y-55297757D01*
X103838576Y-55701077D01*
X103619650Y-56228309D01*
X103619152Y-56799187D01*
X96300984Y-56799187D01*
X96357513Y-56515000D01*
X96248280Y-55965849D01*
X95937211Y-55500302D01*
X95471664Y-55189233D01*
X94922513Y-55080000D01*
X94866287Y-55080000D01*
X94317136Y-55189233D01*
X93851589Y-55500302D01*
X93540520Y-55965849D01*
X93431287Y-56515000D01*
X91793900Y-56515000D01*
X91794165Y-56211009D01*
X91560968Y-55646629D01*
X91129543Y-55214449D01*
X91108706Y-55205797D01*
X91159454Y-55055159D01*
X90258900Y-54154605D01*
X89358346Y-55055159D01*
X89408935Y-55205327D01*
X89390529Y-55212932D01*
X88958349Y-55644357D01*
X88724167Y-56208330D01*
X88723635Y-56818991D01*
X88956832Y-57383371D01*
X89358082Y-57785323D01*
X88958349Y-58184357D01*
X88724167Y-58748330D01*
X88723635Y-59358991D01*
X88956832Y-59923371D01*
X89358082Y-60325323D01*
X88958349Y-60724357D01*
X88724167Y-61288330D01*
X88723635Y-61898991D01*
X88956832Y-62463371D01*
X89358082Y-62865323D01*
X89022819Y-63200000D01*
X88671400Y-63200000D01*
X88313591Y-63271173D01*
X88010255Y-63473855D01*
X85058310Y-66425800D01*
X74980800Y-66425800D01*
X74622991Y-66496973D01*
X74319655Y-66699655D01*
X70123110Y-70896200D01*
X62312490Y-70896200D01*
X54236900Y-62820610D01*
X54236900Y-55512023D01*
X54351954Y-55435147D01*
X54571900Y-55105974D01*
X54791846Y-55435147D01*
X54906900Y-55512023D01*
X54906900Y-61175900D01*
X54978073Y-61533709D01*
X55180755Y-61837045D01*
X58139855Y-64796145D01*
X58443191Y-64998827D01*
X58801000Y-65070000D01*
X66163345Y-65070000D01*
X66498082Y-65405323D01*
X66098349Y-65804357D01*
X65864167Y-66368330D01*
X65863635Y-66978991D01*
X66096832Y-67543371D01*
X66498082Y-67945323D01*
X66098349Y-68344357D01*
X65864167Y-68908330D01*
X65863635Y-69518991D01*
X66096832Y-70083371D01*
X66528257Y-70515551D01*
X67092230Y-70749733D01*
X67702891Y-70750265D01*
X68267271Y-70517068D01*
X68699451Y-70085643D01*
X68933633Y-69521670D01*
X68934165Y-68911009D01*
X68700968Y-68346629D01*
X68299718Y-67944677D01*
X68699451Y-67545643D01*
X68933633Y-66981670D01*
X68934165Y-66371009D01*
X68700968Y-65806629D01*
X68299718Y-65404677D01*
X68699451Y-65005643D01*
X68933633Y-64441670D01*
X68934165Y-63831009D01*
X68700968Y-63266629D01*
X68299718Y-62864677D01*
X68699451Y-62465643D01*
X68933633Y-61901670D01*
X68934165Y-61291009D01*
X68700968Y-60726629D01*
X68299718Y-60324677D01*
X68699451Y-59925643D01*
X68933633Y-59361670D01*
X68934165Y-58751009D01*
X68700968Y-58186629D01*
X68299718Y-57784677D01*
X68699451Y-57385643D01*
X68933633Y-56821670D01*
X68934165Y-56211009D01*
X68700968Y-55646629D01*
X68299718Y-55244677D01*
X68699451Y-54845643D01*
X68933633Y-54281670D01*
X68934165Y-53671009D01*
X68828881Y-53416200D01*
X75016287Y-53416200D01*
X75125520Y-53965351D01*
X75436589Y-54430898D01*
X75902136Y-54741967D01*
X76451287Y-54851200D01*
X76507513Y-54851200D01*
X77056664Y-54741967D01*
X77522211Y-54430898D01*
X77833280Y-53965351D01*
X77942513Y-53416200D01*
X77833280Y-52867049D01*
X77665668Y-52616200D01*
X85191960Y-52616200D01*
X85191960Y-54216200D01*
X85236238Y-54451517D01*
X85375310Y-54667641D01*
X85587510Y-54812631D01*
X85839400Y-54863640D01*
X87439400Y-54863640D01*
X87674717Y-54819362D01*
X87890841Y-54680290D01*
X88035831Y-54468090D01*
X88086840Y-54216200D01*
X88086840Y-53734336D01*
X88712442Y-53734336D01*
X88738061Y-54344460D01*
X88922257Y-54789148D01*
X89178741Y-54875554D01*
X90079295Y-53975000D01*
X90438505Y-53975000D01*
X91339059Y-54875554D01*
X91595543Y-54789148D01*
X91805358Y-54215664D01*
X91779739Y-53605540D01*
X91595543Y-53160852D01*
X91339059Y-53074446D01*
X90438505Y-53975000D01*
X90079295Y-53975000D01*
X89178741Y-53074446D01*
X88922257Y-53160852D01*
X88712442Y-53734336D01*
X88086840Y-53734336D01*
X88086840Y-52616200D01*
X88042562Y-52380883D01*
X87903490Y-52164759D01*
X87691290Y-52019769D01*
X87439400Y-51968760D01*
X85839400Y-51968760D01*
X85604083Y-52013038D01*
X85387959Y-52152110D01*
X85242969Y-52364310D01*
X85191960Y-52616200D01*
X77665668Y-52616200D01*
X77522211Y-52401502D01*
X77056664Y-52090433D01*
X76507513Y-51981200D01*
X76451287Y-51981200D01*
X75902136Y-52090433D01*
X75436589Y-52401502D01*
X75125520Y-52867049D01*
X75016287Y-53416200D01*
X68828881Y-53416200D01*
X68700968Y-53106629D01*
X68299718Y-52704677D01*
X68699451Y-52305643D01*
X68933633Y-51741670D01*
X68933635Y-51738991D01*
X88723635Y-51738991D01*
X88956832Y-52303371D01*
X89388257Y-52735551D01*
X89409094Y-52744203D01*
X89358346Y-52894841D01*
X90258900Y-53795395D01*
X91159454Y-52894841D01*
X91108865Y-52744673D01*
X91127271Y-52737068D01*
X91559451Y-52305643D01*
X91793633Y-51741670D01*
X91793900Y-51435000D01*
X93367787Y-51435000D01*
X93477020Y-51984151D01*
X93788089Y-52449698D01*
X94253636Y-52760767D01*
X94802787Y-52870000D01*
X94859013Y-52870000D01*
X95408164Y-52760767D01*
X95873711Y-52449698D01*
X96184780Y-51984151D01*
X96237484Y-51719187D01*
X103555652Y-51719187D01*
X103773657Y-52246800D01*
X104176977Y-52650824D01*
X104704209Y-52869750D01*
X105275087Y-52870248D01*
X105802700Y-52652243D01*
X106206724Y-52248923D01*
X106425650Y-51721691D01*
X106426148Y-51150813D01*
X106208143Y-50623200D01*
X105804823Y-50219176D01*
X105277591Y-50000250D01*
X104706713Y-49999752D01*
X104179100Y-50217757D01*
X103775076Y-50621077D01*
X103556150Y-51148309D01*
X103555652Y-51719187D01*
X96237484Y-51719187D01*
X96294013Y-51435000D01*
X96184780Y-50885849D01*
X95873711Y-50420302D01*
X95408164Y-50109233D01*
X94859013Y-50000000D01*
X94802787Y-50000000D01*
X94253636Y-50109233D01*
X93788089Y-50420302D01*
X93477020Y-50885849D01*
X93367787Y-51435000D01*
X91793900Y-51435000D01*
X91794165Y-51131009D01*
X91560968Y-50566629D01*
X91129543Y-50134449D01*
X90565570Y-49900267D01*
X89954909Y-49899735D01*
X89390529Y-50132932D01*
X88958349Y-50564357D01*
X88724167Y-51128330D01*
X88723635Y-51738991D01*
X68933635Y-51738991D01*
X68934165Y-51131009D01*
X68700968Y-50566629D01*
X68269543Y-50134449D01*
X67705570Y-49900267D01*
X67094909Y-49899735D01*
X66530529Y-50132932D01*
X66098349Y-50564357D01*
X65864167Y-51128330D01*
X65863635Y-51738991D01*
X65917821Y-51870131D01*
X65552600Y-51504910D01*
X65552600Y-46990000D01*
X65481427Y-46632191D01*
X65278745Y-46328855D01*
X64688784Y-45738894D01*
X94326426Y-45738894D01*
X94574738Y-46339855D01*
X95034127Y-46800046D01*
X95634653Y-47049406D01*
X96284894Y-47049974D01*
X96885855Y-46801662D01*
X97346046Y-46342273D01*
X97436020Y-46125591D01*
X98845535Y-46125591D01*
X99078732Y-46689971D01*
X99510157Y-47122151D01*
X100074130Y-47356333D01*
X100684791Y-47356865D01*
X101249171Y-47123668D01*
X101426641Y-46946508D01*
X101482473Y-47081299D01*
X101661102Y-47259927D01*
X101894491Y-47356600D01*
X102635050Y-47356600D01*
X102793800Y-47197850D01*
X102793800Y-45948600D01*
X103047800Y-45948600D01*
X103047800Y-47197850D01*
X103206550Y-47356600D01*
X103947109Y-47356600D01*
X104180498Y-47259927D01*
X104359127Y-47081299D01*
X104455800Y-46847910D01*
X104455800Y-46125591D01*
X104636735Y-46125591D01*
X104869932Y-46689971D01*
X105301357Y-47122151D01*
X105865330Y-47356333D01*
X106475991Y-47356865D01*
X107040371Y-47123668D01*
X107217841Y-46946508D01*
X107273673Y-47081299D01*
X107452302Y-47259927D01*
X107685691Y-47356600D01*
X108426250Y-47356600D01*
X108585000Y-47197850D01*
X108585000Y-45948600D01*
X108839000Y-45948600D01*
X108839000Y-47197850D01*
X108997750Y-47356600D01*
X109738309Y-47356600D01*
X109971698Y-47259927D01*
X110150327Y-47081299D01*
X110247000Y-46847910D01*
X110247000Y-46107350D01*
X110088250Y-45948600D01*
X108839000Y-45948600D01*
X108585000Y-45948600D01*
X108565000Y-45948600D01*
X108565000Y-45694600D01*
X108585000Y-45694600D01*
X108585000Y-44445350D01*
X108839000Y-44445350D01*
X108839000Y-45694600D01*
X110088250Y-45694600D01*
X110247000Y-45535850D01*
X110247000Y-44795290D01*
X110150327Y-44561901D01*
X109971698Y-44383273D01*
X109738309Y-44286600D01*
X108997750Y-44286600D01*
X108839000Y-44445350D01*
X108585000Y-44445350D01*
X108426250Y-44286600D01*
X107685691Y-44286600D01*
X107452302Y-44383273D01*
X107273673Y-44561901D01*
X107217881Y-44696594D01*
X107042643Y-44521049D01*
X106478670Y-44286867D01*
X105868009Y-44286335D01*
X105303629Y-44519532D01*
X104871449Y-44950957D01*
X104637267Y-45514930D01*
X104636735Y-46125591D01*
X104455800Y-46125591D01*
X104455800Y-46107350D01*
X104297050Y-45948600D01*
X103047800Y-45948600D01*
X102793800Y-45948600D01*
X102773800Y-45948600D01*
X102773800Y-45694600D01*
X102793800Y-45694600D01*
X102793800Y-44445350D01*
X103047800Y-44445350D01*
X103047800Y-45694600D01*
X104297050Y-45694600D01*
X104455800Y-45535850D01*
X104455800Y-44795290D01*
X104359127Y-44561901D01*
X104180498Y-44383273D01*
X103947109Y-44286600D01*
X103206550Y-44286600D01*
X103047800Y-44445350D01*
X102793800Y-44445350D01*
X102635050Y-44286600D01*
X101894491Y-44286600D01*
X101661102Y-44383273D01*
X101482473Y-44561901D01*
X101426681Y-44696594D01*
X101251443Y-44521049D01*
X100687470Y-44286867D01*
X100076809Y-44286335D01*
X99512429Y-44519532D01*
X99080249Y-44950957D01*
X98846067Y-45514930D01*
X98845535Y-46125591D01*
X97436020Y-46125591D01*
X97595406Y-45741747D01*
X97595974Y-45091506D01*
X97347662Y-44490545D01*
X96888273Y-44030354D01*
X96287747Y-43780994D01*
X95637506Y-43780426D01*
X95036545Y-44028738D01*
X94576354Y-44488127D01*
X94326994Y-45088653D01*
X94326426Y-45738894D01*
X64688784Y-45738894D01*
X62982477Y-44032587D01*
X62982614Y-43875221D01*
X62794992Y-43421143D01*
X62447885Y-43073429D01*
X61994134Y-42885015D01*
X61502821Y-42884586D01*
X61048743Y-43072208D01*
X60701029Y-43419315D01*
X60512615Y-43873066D01*
X60512186Y-44364379D01*
X60699808Y-44818457D01*
X61046915Y-45166171D01*
X61500666Y-45354585D01*
X61660034Y-45354724D01*
X63682600Y-47377290D01*
X63682600Y-51892200D01*
X63753773Y-52250009D01*
X63956455Y-52553345D01*
X65991459Y-54588349D01*
X66096832Y-54843371D01*
X66498082Y-55245323D01*
X66098349Y-55644357D01*
X65864167Y-56208330D01*
X65863635Y-56818991D01*
X66096832Y-57383371D01*
X66498082Y-57785323D01*
X66098349Y-58184357D01*
X65864167Y-58748330D01*
X65863635Y-59358991D01*
X66096832Y-59923371D01*
X66498082Y-60325323D01*
X66098349Y-60724357D01*
X65864167Y-61288330D01*
X65863635Y-61898991D01*
X66096832Y-62463371D01*
X66498082Y-62865323D01*
X66162819Y-63200000D01*
X59188290Y-63200000D01*
X56776900Y-60788610D01*
X56776900Y-55512023D01*
X56891954Y-55435147D01*
X57111900Y-55105974D01*
X57331846Y-55435147D01*
X57813615Y-55757054D01*
X58381900Y-55870093D01*
X58950185Y-55757054D01*
X59431954Y-55435147D01*
X59651900Y-55105974D01*
X59871846Y-55435147D01*
X60353615Y-55757054D01*
X60921900Y-55870093D01*
X61490185Y-55757054D01*
X61971954Y-55435147D01*
X62293861Y-54953378D01*
X62406900Y-54385093D01*
X62406900Y-54326907D01*
X62293861Y-53758622D01*
X61971954Y-53276853D01*
X61686322Y-53086000D01*
X61971954Y-52895147D01*
X62293861Y-52413378D01*
X62406900Y-51845093D01*
X62406900Y-51786907D01*
X62293861Y-51218622D01*
X61971954Y-50736853D01*
X61490185Y-50414946D01*
X60921900Y-50301907D01*
X60353615Y-50414946D01*
X59871846Y-50736853D01*
X59644198Y-51077553D01*
X59577083Y-50934642D01*
X59148824Y-50544355D01*
X58738790Y-50374524D01*
X58508900Y-50495845D01*
X58508900Y-51689000D01*
X58528900Y-51689000D01*
X58528900Y-51943000D01*
X58508900Y-51943000D01*
X58508900Y-51963000D01*
X58254900Y-51963000D01*
X58254900Y-51943000D01*
X58234900Y-51943000D01*
X58234900Y-51689000D01*
X58254900Y-51689000D01*
X58254900Y-50495845D01*
X58025010Y-50374524D01*
X57614976Y-50544355D01*
X57186717Y-50934642D01*
X57119602Y-51077553D01*
X56891954Y-50736853D01*
X56410185Y-50414946D01*
X55841900Y-50301907D01*
X55273615Y-50414946D01*
X54791846Y-50736853D01*
X54571900Y-51066026D01*
X54351954Y-50736853D01*
X53870185Y-50414946D01*
X53301900Y-50301907D01*
X52733615Y-50414946D01*
X52251846Y-50736853D01*
X52224050Y-50778452D01*
X52215062Y-50730683D01*
X52075990Y-50514559D01*
X51863790Y-50369569D01*
X51611900Y-50318560D01*
X49911900Y-50318560D01*
X49676583Y-50362838D01*
X49460459Y-50501910D01*
X49315469Y-50714110D01*
X49264460Y-50966000D01*
X45769600Y-50966000D01*
X45769600Y-32053600D01*
X111913600Y-32053600D01*
X111913600Y-89206000D01*
X111913600Y-89206000D01*
G37*
X111913600Y-89206000D02*
X103164092Y-89206000D01*
X90062446Y-76104354D01*
X89832105Y-75950446D01*
X89560400Y-75896400D01*
X65887600Y-75896400D01*
X65615895Y-75950446D01*
X65385554Y-76104354D01*
X52283908Y-89206000D01*
X45769600Y-89206000D01*
X45769600Y-50966000D01*
X49264460Y-50966000D01*
X49264460Y-52666000D01*
X49308738Y-52901317D01*
X49447810Y-53117441D01*
X49660010Y-53262431D01*
X49716354Y-53273841D01*
X49711846Y-53276853D01*
X49389939Y-53758622D01*
X49276900Y-54326907D01*
X49276900Y-54385093D01*
X49389939Y-54953378D01*
X49711846Y-55435147D01*
X49826900Y-55512023D01*
X49826900Y-66611500D01*
X49898073Y-66969309D01*
X50100755Y-67272645D01*
X57606455Y-74778345D01*
X57909791Y-74981027D01*
X58267600Y-75052200D01*
X71361202Y-75052200D01*
X71719011Y-74981027D01*
X72022347Y-74778345D01*
X76015692Y-70785000D01*
X85210710Y-70785000D01*
X88950055Y-74524345D01*
X89253391Y-74727027D01*
X89611200Y-74798200D01*
X93980000Y-74798200D01*
X94337809Y-74727027D01*
X94641145Y-74524345D01*
X97130345Y-72035145D01*
X97333027Y-71731809D01*
X97404200Y-71374000D01*
X97404200Y-64109600D01*
X97333027Y-63751791D01*
X97130345Y-63448455D01*
X94615745Y-60933855D01*
X94312409Y-60731173D01*
X93954600Y-60660000D01*
X91494455Y-60660000D01*
X91159718Y-60324677D01*
X91559451Y-59925643D01*
X91793633Y-59361670D01*
X91794165Y-58751009D01*
X91560968Y-58186629D01*
X91159718Y-57784677D01*
X91559451Y-57385643D01*
X91793633Y-56821670D01*
X91793900Y-56515000D01*
X93431287Y-56515000D01*
X93540520Y-57064151D01*
X93851589Y-57529698D01*
X94317136Y-57840767D01*
X94866287Y-57950000D01*
X94922513Y-57950000D01*
X95471664Y-57840767D01*
X95937211Y-57529698D01*
X96248280Y-57064151D01*
X96300984Y-56799187D01*
X103619152Y-56799187D01*
X103837157Y-57326800D01*
X104240477Y-57730824D01*
X104767709Y-57949750D01*
X105338587Y-57950248D01*
X105866200Y-57732243D01*
X106270224Y-57328923D01*
X106489150Y-56801691D01*
X106489648Y-56230813D01*
X106271643Y-55703200D01*
X105868323Y-55299176D01*
X105341091Y-55080250D01*
X104770213Y-55079752D01*
X104242600Y-55297757D01*
X103838576Y-55701077D01*
X103619650Y-56228309D01*
X103619152Y-56799187D01*
X96300984Y-56799187D01*
X96357513Y-56515000D01*
X96248280Y-55965849D01*
X95937211Y-55500302D01*
X95471664Y-55189233D01*
X94922513Y-55080000D01*
X94866287Y-55080000D01*
X94317136Y-55189233D01*
X93851589Y-55500302D01*
X93540520Y-55965849D01*
X93431287Y-56515000D01*
X91793900Y-56515000D01*
X91794165Y-56211009D01*
X91560968Y-55646629D01*
X91129543Y-55214449D01*
X91108706Y-55205797D01*
X91159454Y-55055159D01*
X90258900Y-54154605D01*
X89358346Y-55055159D01*
X89408935Y-55205327D01*
X89390529Y-55212932D01*
X88958349Y-55644357D01*
X88724167Y-56208330D01*
X88723635Y-56818991D01*
X88956832Y-57383371D01*
X89358082Y-57785323D01*
X88958349Y-58184357D01*
X88724167Y-58748330D01*
X88723635Y-59358991D01*
X88956832Y-59923371D01*
X89358082Y-60325323D01*
X88958349Y-60724357D01*
X88724167Y-61288330D01*
X88723635Y-61898991D01*
X88956832Y-62463371D01*
X89358082Y-62865323D01*
X89022819Y-63200000D01*
X88671400Y-63200000D01*
X88313591Y-63271173D01*
X88010255Y-63473855D01*
X85058310Y-66425800D01*
X74980800Y-66425800D01*
X74622991Y-66496973D01*
X74319655Y-66699655D01*
X70123110Y-70896200D01*
X62312490Y-70896200D01*
X54236900Y-62820610D01*
X54236900Y-55512023D01*
X54351954Y-55435147D01*
X54571900Y-55105974D01*
X54791846Y-55435147D01*
X54906900Y-55512023D01*
X54906900Y-61175900D01*
X54978073Y-61533709D01*
X55180755Y-61837045D01*
X58139855Y-64796145D01*
X58443191Y-64998827D01*
X58801000Y-65070000D01*
X66163345Y-65070000D01*
X66498082Y-65405323D01*
X66098349Y-65804357D01*
X65864167Y-66368330D01*
X65863635Y-66978991D01*
X66096832Y-67543371D01*
X66498082Y-67945323D01*
X66098349Y-68344357D01*
X65864167Y-68908330D01*
X65863635Y-69518991D01*
X66096832Y-70083371D01*
X66528257Y-70515551D01*
X67092230Y-70749733D01*
X67702891Y-70750265D01*
X68267271Y-70517068D01*
X68699451Y-70085643D01*
X68933633Y-69521670D01*
X68934165Y-68911009D01*
X68700968Y-68346629D01*
X68299718Y-67944677D01*
X68699451Y-67545643D01*
X68933633Y-66981670D01*
X68934165Y-66371009D01*
X68700968Y-65806629D01*
X68299718Y-65404677D01*
X68699451Y-65005643D01*
X68933633Y-64441670D01*
X68934165Y-63831009D01*
X68700968Y-63266629D01*
X68299718Y-62864677D01*
X68699451Y-62465643D01*
X68933633Y-61901670D01*
X68934165Y-61291009D01*
X68700968Y-60726629D01*
X68299718Y-60324677D01*
X68699451Y-59925643D01*
X68933633Y-59361670D01*
X68934165Y-58751009D01*
X68700968Y-58186629D01*
X68299718Y-57784677D01*
X68699451Y-57385643D01*
X68933633Y-56821670D01*
X68934165Y-56211009D01*
X68700968Y-55646629D01*
X68299718Y-55244677D01*
X68699451Y-54845643D01*
X68933633Y-54281670D01*
X68934165Y-53671009D01*
X68828881Y-53416200D01*
X75016287Y-53416200D01*
X75125520Y-53965351D01*
X75436589Y-54430898D01*
X75902136Y-54741967D01*
X76451287Y-54851200D01*
X76507513Y-54851200D01*
X77056664Y-54741967D01*
X77522211Y-54430898D01*
X77833280Y-53965351D01*
X77942513Y-53416200D01*
X77833280Y-52867049D01*
X77665668Y-52616200D01*
X85191960Y-52616200D01*
X85191960Y-54216200D01*
X85236238Y-54451517D01*
X85375310Y-54667641D01*
X85587510Y-54812631D01*
X85839400Y-54863640D01*
X87439400Y-54863640D01*
X87674717Y-54819362D01*
X87890841Y-54680290D01*
X88035831Y-54468090D01*
X88086840Y-54216200D01*
X88086840Y-53734336D01*
X88712442Y-53734336D01*
X88738061Y-54344460D01*
X88922257Y-54789148D01*
X89178741Y-54875554D01*
X90079295Y-53975000D01*
X90438505Y-53975000D01*
X91339059Y-54875554D01*
X91595543Y-54789148D01*
X91805358Y-54215664D01*
X91779739Y-53605540D01*
X91595543Y-53160852D01*
X91339059Y-53074446D01*
X90438505Y-53975000D01*
X90079295Y-53975000D01*
X89178741Y-53074446D01*
X88922257Y-53160852D01*
X88712442Y-53734336D01*
X88086840Y-53734336D01*
X88086840Y-52616200D01*
X88042562Y-52380883D01*
X87903490Y-52164759D01*
X87691290Y-52019769D01*
X87439400Y-51968760D01*
X85839400Y-51968760D01*
X85604083Y-52013038D01*
X85387959Y-52152110D01*
X85242969Y-52364310D01*
X85191960Y-52616200D01*
X77665668Y-52616200D01*
X77522211Y-52401502D01*
X77056664Y-52090433D01*
X76507513Y-51981200D01*
X76451287Y-51981200D01*
X75902136Y-52090433D01*
X75436589Y-52401502D01*
X75125520Y-52867049D01*
X75016287Y-53416200D01*
X68828881Y-53416200D01*
X68700968Y-53106629D01*
X68299718Y-52704677D01*
X68699451Y-52305643D01*
X68933633Y-51741670D01*
X68933635Y-51738991D01*
X88723635Y-51738991D01*
X88956832Y-52303371D01*
X89388257Y-52735551D01*
X89409094Y-52744203D01*
X89358346Y-52894841D01*
X90258900Y-53795395D01*
X91159454Y-52894841D01*
X91108865Y-52744673D01*
X91127271Y-52737068D01*
X91559451Y-52305643D01*
X91793633Y-51741670D01*
X91793900Y-51435000D01*
X93367787Y-51435000D01*
X93477020Y-51984151D01*
X93788089Y-52449698D01*
X94253636Y-52760767D01*
X94802787Y-52870000D01*
X94859013Y-52870000D01*
X95408164Y-52760767D01*
X95873711Y-52449698D01*
X96184780Y-51984151D01*
X96237484Y-51719187D01*
X103555652Y-51719187D01*
X103773657Y-52246800D01*
X104176977Y-52650824D01*
X104704209Y-52869750D01*
X105275087Y-52870248D01*
X105802700Y-52652243D01*
X106206724Y-52248923D01*
X106425650Y-51721691D01*
X106426148Y-51150813D01*
X106208143Y-50623200D01*
X105804823Y-50219176D01*
X105277591Y-50000250D01*
X104706713Y-49999752D01*
X104179100Y-50217757D01*
X103775076Y-50621077D01*
X103556150Y-51148309D01*
X103555652Y-51719187D01*
X96237484Y-51719187D01*
X96294013Y-51435000D01*
X96184780Y-50885849D01*
X95873711Y-50420302D01*
X95408164Y-50109233D01*
X94859013Y-50000000D01*
X94802787Y-50000000D01*
X94253636Y-50109233D01*
X93788089Y-50420302D01*
X93477020Y-50885849D01*
X93367787Y-51435000D01*
X91793900Y-51435000D01*
X91794165Y-51131009D01*
X91560968Y-50566629D01*
X91129543Y-50134449D01*
X90565570Y-49900267D01*
X89954909Y-49899735D01*
X89390529Y-50132932D01*
X88958349Y-50564357D01*
X88724167Y-51128330D01*
X88723635Y-51738991D01*
X68933635Y-51738991D01*
X68934165Y-51131009D01*
X68700968Y-50566629D01*
X68269543Y-50134449D01*
X67705570Y-49900267D01*
X67094909Y-49899735D01*
X66530529Y-50132932D01*
X66098349Y-50564357D01*
X65864167Y-51128330D01*
X65863635Y-51738991D01*
X65917821Y-51870131D01*
X65552600Y-51504910D01*
X65552600Y-46990000D01*
X65481427Y-46632191D01*
X65278745Y-46328855D01*
X64688784Y-45738894D01*
X94326426Y-45738894D01*
X94574738Y-46339855D01*
X95034127Y-46800046D01*
X95634653Y-47049406D01*
X96284894Y-47049974D01*
X96885855Y-46801662D01*
X97346046Y-46342273D01*
X97436020Y-46125591D01*
X98845535Y-46125591D01*
X99078732Y-46689971D01*
X99510157Y-47122151D01*
X100074130Y-47356333D01*
X100684791Y-47356865D01*
X101249171Y-47123668D01*
X101426641Y-46946508D01*
X101482473Y-47081299D01*
X101661102Y-47259927D01*
X101894491Y-47356600D01*
X102635050Y-47356600D01*
X102793800Y-47197850D01*
X102793800Y-45948600D01*
X103047800Y-45948600D01*
X103047800Y-47197850D01*
X103206550Y-47356600D01*
X103947109Y-47356600D01*
X104180498Y-47259927D01*
X104359127Y-47081299D01*
X104455800Y-46847910D01*
X104455800Y-46125591D01*
X104636735Y-46125591D01*
X104869932Y-46689971D01*
X105301357Y-47122151D01*
X105865330Y-47356333D01*
X106475991Y-47356865D01*
X107040371Y-47123668D01*
X107217841Y-46946508D01*
X107273673Y-47081299D01*
X107452302Y-47259927D01*
X107685691Y-47356600D01*
X108426250Y-47356600D01*
X108585000Y-47197850D01*
X108585000Y-45948600D01*
X108839000Y-45948600D01*
X108839000Y-47197850D01*
X108997750Y-47356600D01*
X109738309Y-47356600D01*
X109971698Y-47259927D01*
X110150327Y-47081299D01*
X110247000Y-46847910D01*
X110247000Y-46107350D01*
X110088250Y-45948600D01*
X108839000Y-45948600D01*
X108585000Y-45948600D01*
X108565000Y-45948600D01*
X108565000Y-45694600D01*
X108585000Y-45694600D01*
X108585000Y-44445350D01*
X108839000Y-44445350D01*
X108839000Y-45694600D01*
X110088250Y-45694600D01*
X110247000Y-45535850D01*
X110247000Y-44795290D01*
X110150327Y-44561901D01*
X109971698Y-44383273D01*
X109738309Y-44286600D01*
X108997750Y-44286600D01*
X108839000Y-44445350D01*
X108585000Y-44445350D01*
X108426250Y-44286600D01*
X107685691Y-44286600D01*
X107452302Y-44383273D01*
X107273673Y-44561901D01*
X107217881Y-44696594D01*
X107042643Y-44521049D01*
X106478670Y-44286867D01*
X105868009Y-44286335D01*
X105303629Y-44519532D01*
X104871449Y-44950957D01*
X104637267Y-45514930D01*
X104636735Y-46125591D01*
X104455800Y-46125591D01*
X104455800Y-46107350D01*
X104297050Y-45948600D01*
X103047800Y-45948600D01*
X102793800Y-45948600D01*
X102773800Y-45948600D01*
X102773800Y-45694600D01*
X102793800Y-45694600D01*
X102793800Y-44445350D01*
X103047800Y-44445350D01*
X103047800Y-45694600D01*
X104297050Y-45694600D01*
X104455800Y-45535850D01*
X104455800Y-44795290D01*
X104359127Y-44561901D01*
X104180498Y-44383273D01*
X103947109Y-44286600D01*
X103206550Y-44286600D01*
X103047800Y-44445350D01*
X102793800Y-44445350D01*
X102635050Y-44286600D01*
X101894491Y-44286600D01*
X101661102Y-44383273D01*
X101482473Y-44561901D01*
X101426681Y-44696594D01*
X101251443Y-44521049D01*
X100687470Y-44286867D01*
X100076809Y-44286335D01*
X99512429Y-44519532D01*
X99080249Y-44950957D01*
X98846067Y-45514930D01*
X98845535Y-46125591D01*
X97436020Y-46125591D01*
X97595406Y-45741747D01*
X97595974Y-45091506D01*
X97347662Y-44490545D01*
X96888273Y-44030354D01*
X96287747Y-43780994D01*
X95637506Y-43780426D01*
X95036545Y-44028738D01*
X94576354Y-44488127D01*
X94326994Y-45088653D01*
X94326426Y-45738894D01*
X64688784Y-45738894D01*
X62982477Y-44032587D01*
X62982614Y-43875221D01*
X62794992Y-43421143D01*
X62447885Y-43073429D01*
X61994134Y-42885015D01*
X61502821Y-42884586D01*
X61048743Y-43072208D01*
X60701029Y-43419315D01*
X60512615Y-43873066D01*
X60512186Y-44364379D01*
X60699808Y-44818457D01*
X61046915Y-45166171D01*
X61500666Y-45354585D01*
X61660034Y-45354724D01*
X63682600Y-47377290D01*
X63682600Y-51892200D01*
X63753773Y-52250009D01*
X63956455Y-52553345D01*
X65991459Y-54588349D01*
X66096832Y-54843371D01*
X66498082Y-55245323D01*
X66098349Y-55644357D01*
X65864167Y-56208330D01*
X65863635Y-56818991D01*
X66096832Y-57383371D01*
X66498082Y-57785323D01*
X66098349Y-58184357D01*
X65864167Y-58748330D01*
X65863635Y-59358991D01*
X66096832Y-59923371D01*
X66498082Y-60325323D01*
X66098349Y-60724357D01*
X65864167Y-61288330D01*
X65863635Y-61898991D01*
X66096832Y-62463371D01*
X66498082Y-62865323D01*
X66162819Y-63200000D01*
X59188290Y-63200000D01*
X56776900Y-60788610D01*
X56776900Y-55512023D01*
X56891954Y-55435147D01*
X57111900Y-55105974D01*
X57331846Y-55435147D01*
X57813615Y-55757054D01*
X58381900Y-55870093D01*
X58950185Y-55757054D01*
X59431954Y-55435147D01*
X59651900Y-55105974D01*
X59871846Y-55435147D01*
X60353615Y-55757054D01*
X60921900Y-55870093D01*
X61490185Y-55757054D01*
X61971954Y-55435147D01*
X62293861Y-54953378D01*
X62406900Y-54385093D01*
X62406900Y-54326907D01*
X62293861Y-53758622D01*
X61971954Y-53276853D01*
X61686322Y-53086000D01*
X61971954Y-52895147D01*
X62293861Y-52413378D01*
X62406900Y-51845093D01*
X62406900Y-51786907D01*
X62293861Y-51218622D01*
X61971954Y-50736853D01*
X61490185Y-50414946D01*
X60921900Y-50301907D01*
X60353615Y-50414946D01*
X59871846Y-50736853D01*
X59644198Y-51077553D01*
X59577083Y-50934642D01*
X59148824Y-50544355D01*
X58738790Y-50374524D01*
X58508900Y-50495845D01*
X58508900Y-51689000D01*
X58528900Y-51689000D01*
X58528900Y-51943000D01*
X58508900Y-51943000D01*
X58508900Y-51963000D01*
X58254900Y-51963000D01*
X58254900Y-51943000D01*
X58234900Y-51943000D01*
X58234900Y-51689000D01*
X58254900Y-51689000D01*
X58254900Y-50495845D01*
X58025010Y-50374524D01*
X57614976Y-50544355D01*
X57186717Y-50934642D01*
X57119602Y-51077553D01*
X56891954Y-50736853D01*
X56410185Y-50414946D01*
X55841900Y-50301907D01*
X55273615Y-50414946D01*
X54791846Y-50736853D01*
X54571900Y-51066026D01*
X54351954Y-50736853D01*
X53870185Y-50414946D01*
X53301900Y-50301907D01*
X52733615Y-50414946D01*
X52251846Y-50736853D01*
X52224050Y-50778452D01*
X52215062Y-50730683D01*
X52075990Y-50514559D01*
X51863790Y-50369569D01*
X51611900Y-50318560D01*
X49911900Y-50318560D01*
X49676583Y-50362838D01*
X49460459Y-50501910D01*
X49315469Y-50714110D01*
X49264460Y-50966000D01*
X45769600Y-50966000D01*
X45769600Y-32053600D01*
X111913600Y-32053600D01*
X111913600Y-89206000D01*
G36*
X52251846Y-55435147D02*
X52366900Y-55512023D01*
X52366900Y-63207900D01*
X52438073Y-63565709D01*
X52640755Y-63869045D01*
X61264055Y-72492345D01*
X61567391Y-72695027D01*
X61925200Y-72766200D01*
X70510400Y-72766200D01*
X70868209Y-72695027D01*
X71171545Y-72492345D01*
X75368090Y-68295800D01*
X85445600Y-68295800D01*
X85803409Y-68224627D01*
X86106745Y-68021945D01*
X89041002Y-65087688D01*
X89358082Y-65405323D01*
X88958349Y-65804357D01*
X88724167Y-66368330D01*
X88723635Y-66978991D01*
X88956832Y-67543371D01*
X89358082Y-67945323D01*
X88958349Y-68344357D01*
X88724167Y-68908330D01*
X88723635Y-69518991D01*
X88956832Y-70083371D01*
X89388257Y-70515551D01*
X89952230Y-70749733D01*
X90562891Y-70750265D01*
X91127271Y-70517068D01*
X91559451Y-70085643D01*
X91793633Y-69521670D01*
X91794165Y-68911009D01*
X91560968Y-68346629D01*
X91159718Y-67944677D01*
X91559451Y-67545643D01*
X91793633Y-66981670D01*
X91794165Y-66371009D01*
X91560968Y-65806629D01*
X91159718Y-65404677D01*
X91559451Y-65005643D01*
X91793633Y-64441670D01*
X91794165Y-63831009D01*
X91560968Y-63266629D01*
X91159718Y-62864677D01*
X91494981Y-62530000D01*
X93567310Y-62530000D01*
X95534200Y-64496890D01*
X95534200Y-70986710D01*
X93592710Y-72928200D01*
X89998490Y-72928200D01*
X86259145Y-69188855D01*
X85955809Y-68986173D01*
X85598000Y-68915000D01*
X75628402Y-68915000D01*
X75270593Y-68986173D01*
X74967257Y-69188855D01*
X70973912Y-73182200D01*
X58654890Y-73182200D01*
X51696900Y-66224210D01*
X51696900Y-55512023D01*
X51811954Y-55435147D01*
X52031900Y-55105974D01*
X52251846Y-55435147D01*
X52251846Y-55435147D01*
G37*
X52251846Y-55435147D02*
X52366900Y-55512023D01*
X52366900Y-63207900D01*
X52438073Y-63565709D01*
X52640755Y-63869045D01*
X61264055Y-72492345D01*
X61567391Y-72695027D01*
X61925200Y-72766200D01*
X70510400Y-72766200D01*
X70868209Y-72695027D01*
X71171545Y-72492345D01*
X75368090Y-68295800D01*
X85445600Y-68295800D01*
X85803409Y-68224627D01*
X86106745Y-68021945D01*
X89041002Y-65087688D01*
X89358082Y-65405323D01*
X88958349Y-65804357D01*
X88724167Y-66368330D01*
X88723635Y-66978991D01*
X88956832Y-67543371D01*
X89358082Y-67945323D01*
X88958349Y-68344357D01*
X88724167Y-68908330D01*
X88723635Y-69518991D01*
X88956832Y-70083371D01*
X89388257Y-70515551D01*
X89952230Y-70749733D01*
X90562891Y-70750265D01*
X91127271Y-70517068D01*
X91559451Y-70085643D01*
X91793633Y-69521670D01*
X91794165Y-68911009D01*
X91560968Y-68346629D01*
X91159718Y-67944677D01*
X91559451Y-67545643D01*
X91793633Y-66981670D01*
X91794165Y-66371009D01*
X91560968Y-65806629D01*
X91159718Y-65404677D01*
X91559451Y-65005643D01*
X91793633Y-64441670D01*
X91794165Y-63831009D01*
X91560968Y-63266629D01*
X91159718Y-62864677D01*
X91494981Y-62530000D01*
X93567310Y-62530000D01*
X95534200Y-64496890D01*
X95534200Y-70986710D01*
X93592710Y-72928200D01*
X89998490Y-72928200D01*
X86259145Y-69188855D01*
X85955809Y-68986173D01*
X85598000Y-68915000D01*
X75628402Y-68915000D01*
X75270593Y-68986173D01*
X74967257Y-69188855D01*
X70973912Y-73182200D01*
X58654890Y-73182200D01*
X51696900Y-66224210D01*
X51696900Y-55512023D01*
X51811954Y-55435147D01*
X52031900Y-55105974D01*
X52251846Y-55435147D01*
M02*
