G04 #@! TF.FileFunction,Other,Fab,Top*
%FSLAX46Y46*%
G04 Gerber Fmt 4.6, Leading zero omitted, Abs format (unit mm)*
G04 Created by KiCad (PCBNEW 4.0.7-e2-6376~61~ubuntu18.04.1) date Sun Sep 22 13:03:15 2019*
%MOMM*%
%LPD*%
G01*
G04 APERTURE LIST*
%ADD10C,0.100000*%
%ADD11C,0.150000*%
G04 APERTURE END LIST*
D10*
X108942555Y-44656124D02*
G75*
G03X108942000Y-46987790I-1500555J-1165476D01*
G01*
X108942000Y-45821600D02*
G75*
G03X108942000Y-45821600I-1500000J0D01*
G01*
X108942000Y-46987790D02*
X108942000Y-44655410D01*
X103151355Y-44656124D02*
G75*
G03X103150800Y-46987790I-1500555J-1165476D01*
G01*
X103150800Y-45821600D02*
G75*
G03X103150800Y-45821600I-1500000J0D01*
G01*
X103150800Y-46987790D02*
X103150800Y-44655410D01*
X83559400Y-54416200D02*
X83559400Y-52416200D01*
X83559400Y-52416200D02*
X79559400Y-52416200D01*
X79559400Y-52416200D02*
X79559400Y-54416200D01*
X79559400Y-54416200D02*
X83559400Y-54416200D01*
X86639400Y-53416200D02*
X83559400Y-53416200D01*
X76479400Y-53416200D02*
X79559400Y-53416200D01*
X82959400Y-54416200D02*
X82959400Y-52416200D01*
X103124400Y-57765000D02*
X103124400Y-55265000D01*
X103124400Y-55265000D02*
X96824400Y-55265000D01*
X96824400Y-55265000D02*
X96824400Y-57765000D01*
X96824400Y-57765000D02*
X103124400Y-57765000D01*
X105054400Y-56515000D02*
X103124400Y-56515000D01*
X94894400Y-56515000D02*
X96824400Y-56515000D01*
X103060900Y-52685000D02*
X103060900Y-50185000D01*
X103060900Y-50185000D02*
X96760900Y-50185000D01*
X96760900Y-50185000D02*
X96760900Y-52685000D01*
X96760900Y-52685000D02*
X103060900Y-52685000D01*
X104990900Y-51435000D02*
X103060900Y-51435000D01*
X94830900Y-51435000D02*
X96760900Y-51435000D01*
D11*
X108894643Y-43822881D02*
X108418452Y-43822881D01*
X108418452Y-42822881D01*
X109227976Y-43299071D02*
X109561310Y-43299071D01*
X109704167Y-43822881D02*
X109227976Y-43822881D01*
X109227976Y-42822881D01*
X109704167Y-42822881D01*
X110132738Y-43822881D02*
X110132738Y-42822881D01*
X110370833Y-42822881D01*
X110513691Y-42870500D01*
X110608929Y-42965738D01*
X110656548Y-43060976D01*
X110704167Y-43251452D01*
X110704167Y-43394310D01*
X110656548Y-43584786D01*
X110608929Y-43680024D01*
X110513691Y-43775262D01*
X110370833Y-43822881D01*
X110132738Y-43822881D01*
X97350343Y-49614081D02*
X96874152Y-49614081D01*
X96874152Y-48614081D01*
X97683676Y-49090271D02*
X98017010Y-49090271D01*
X98159867Y-49614081D02*
X97683676Y-49614081D01*
X97683676Y-48614081D01*
X98159867Y-48614081D01*
X98588438Y-49614081D02*
X98588438Y-48614081D01*
X98826533Y-48614081D01*
X98969391Y-48661700D01*
X99064629Y-48756938D01*
X99112248Y-48852176D01*
X99159867Y-49042652D01*
X99159867Y-49185510D01*
X99112248Y-49375986D01*
X99064629Y-49471224D01*
X98969391Y-49566462D01*
X98826533Y-49614081D01*
X98588438Y-49614081D01*
X78583209Y-51760962D02*
X78726066Y-51808581D01*
X78964162Y-51808581D01*
X79059400Y-51760962D01*
X79107019Y-51713343D01*
X79154638Y-51618105D01*
X79154638Y-51522867D01*
X79107019Y-51427629D01*
X79059400Y-51380010D01*
X78964162Y-51332390D01*
X78773685Y-51284771D01*
X78678447Y-51237152D01*
X78630828Y-51189533D01*
X78583209Y-51094295D01*
X78583209Y-50999057D01*
X78630828Y-50903819D01*
X78678447Y-50856200D01*
X78773685Y-50808581D01*
X79011781Y-50808581D01*
X79154638Y-50856200D01*
X80011781Y-51760962D02*
X79916543Y-51808581D01*
X79726066Y-51808581D01*
X79630828Y-51760962D01*
X79583209Y-51713343D01*
X79535590Y-51618105D01*
X79535590Y-51332390D01*
X79583209Y-51237152D01*
X79630828Y-51189533D01*
X79726066Y-51141914D01*
X79916543Y-51141914D01*
X80011781Y-51189533D01*
X80440352Y-51808581D02*
X80440352Y-50808581D01*
X80868924Y-51808581D02*
X80868924Y-51284771D01*
X80821305Y-51189533D01*
X80726067Y-51141914D01*
X80583209Y-51141914D01*
X80487971Y-51189533D01*
X80440352Y-51237152D01*
X81487971Y-51808581D02*
X81392733Y-51760962D01*
X81345114Y-51713343D01*
X81297495Y-51618105D01*
X81297495Y-51332390D01*
X81345114Y-51237152D01*
X81392733Y-51189533D01*
X81487971Y-51141914D01*
X81630829Y-51141914D01*
X81726067Y-51189533D01*
X81773686Y-51237152D01*
X81821305Y-51332390D01*
X81821305Y-51618105D01*
X81773686Y-51713343D01*
X81726067Y-51760962D01*
X81630829Y-51808581D01*
X81487971Y-51808581D01*
X82107019Y-51141914D02*
X82487971Y-51141914D01*
X82249876Y-50808581D02*
X82249876Y-51665724D01*
X82297495Y-51760962D01*
X82392733Y-51808581D01*
X82487971Y-51808581D01*
X82678448Y-51141914D02*
X83059400Y-51141914D01*
X82821305Y-50808581D02*
X82821305Y-51665724D01*
X82868924Y-51760962D01*
X82964162Y-51808581D01*
X83059400Y-51808581D01*
X83392734Y-51808581D02*
X83392734Y-50808581D01*
X83487972Y-51427629D02*
X83773687Y-51808581D01*
X83773687Y-51141914D02*
X83392734Y-51522867D01*
X84107020Y-51141914D02*
X84345115Y-51808581D01*
X84583211Y-51141914D02*
X84345115Y-51808581D01*
X84249877Y-52046676D01*
X84202258Y-52094295D01*
X84107020Y-52141914D01*
X91909638Y-46709981D02*
X92481067Y-46709981D01*
X92195352Y-47709981D02*
X92195352Y-46709981D01*
X93195353Y-47662362D02*
X93100115Y-47709981D01*
X92909638Y-47709981D01*
X92814400Y-47662362D01*
X92766781Y-47567124D01*
X92766781Y-47186171D01*
X92814400Y-47090933D01*
X92909638Y-47043314D01*
X93100115Y-47043314D01*
X93195353Y-47090933D01*
X93242972Y-47186171D01*
X93242972Y-47281410D01*
X92766781Y-47376648D01*
X93623924Y-47662362D02*
X93719162Y-47709981D01*
X93909638Y-47709981D01*
X94004877Y-47662362D01*
X94052496Y-47567124D01*
X94052496Y-47519505D01*
X94004877Y-47424267D01*
X93909638Y-47376648D01*
X93766781Y-47376648D01*
X93671543Y-47329029D01*
X93623924Y-47233790D01*
X93623924Y-47186171D01*
X93671543Y-47090933D01*
X93766781Y-47043314D01*
X93909638Y-47043314D01*
X94004877Y-47090933D01*
X94338210Y-47043314D02*
X94719162Y-47043314D01*
X94481067Y-46709981D02*
X94481067Y-47567124D01*
X94528686Y-47662362D01*
X94623924Y-47709981D01*
X94719162Y-47709981D01*
X98736305Y-55986419D02*
X98783924Y-55938800D01*
X98879162Y-55891181D01*
X99117258Y-55891181D01*
X99212496Y-55938800D01*
X99260115Y-55986419D01*
X99307734Y-56081657D01*
X99307734Y-56176895D01*
X99260115Y-56319752D01*
X98688686Y-56891181D01*
X99307734Y-56891181D01*
X99688686Y-55986419D02*
X99736305Y-55938800D01*
X99831543Y-55891181D01*
X100069639Y-55891181D01*
X100164877Y-55938800D01*
X100212496Y-55986419D01*
X100260115Y-56081657D01*
X100260115Y-56176895D01*
X100212496Y-56319752D01*
X99641067Y-56891181D01*
X100260115Y-56891181D01*
X100879162Y-55891181D02*
X100974401Y-55891181D01*
X101069639Y-55938800D01*
X101117258Y-55986419D01*
X101164877Y-56081657D01*
X101212496Y-56272133D01*
X101212496Y-56510229D01*
X101164877Y-56700705D01*
X101117258Y-56795943D01*
X101069639Y-56843562D01*
X100974401Y-56891181D01*
X100879162Y-56891181D01*
X100783924Y-56843562D01*
X100736305Y-56795943D01*
X100688686Y-56700705D01*
X100641067Y-56510229D01*
X100641067Y-56272133D01*
X100688686Y-56081657D01*
X100736305Y-55986419D01*
X100783924Y-55938800D01*
X100879162Y-55891181D01*
X98837905Y-50855619D02*
X98885524Y-50808000D01*
X98980762Y-50760381D01*
X99218858Y-50760381D01*
X99314096Y-50808000D01*
X99361715Y-50855619D01*
X99409334Y-50950857D01*
X99409334Y-51046095D01*
X99361715Y-51188952D01*
X98790286Y-51760381D01*
X99409334Y-51760381D01*
X99790286Y-50855619D02*
X99837905Y-50808000D01*
X99933143Y-50760381D01*
X100171239Y-50760381D01*
X100266477Y-50808000D01*
X100314096Y-50855619D01*
X100361715Y-50950857D01*
X100361715Y-51046095D01*
X100314096Y-51188952D01*
X99742667Y-51760381D01*
X100361715Y-51760381D01*
X100980762Y-50760381D02*
X101076001Y-50760381D01*
X101171239Y-50808000D01*
X101218858Y-50855619D01*
X101266477Y-50950857D01*
X101314096Y-51141333D01*
X101314096Y-51379429D01*
X101266477Y-51569905D01*
X101218858Y-51665143D01*
X101171239Y-51712762D01*
X101076001Y-51760381D01*
X100980762Y-51760381D01*
X100885524Y-51712762D01*
X100837905Y-51665143D01*
X100790286Y-51569905D01*
X100742667Y-51379429D01*
X100742667Y-51141333D01*
X100790286Y-50950857D01*
X100837905Y-50855619D01*
X100885524Y-50808000D01*
X100980762Y-50760381D01*
X66045296Y-41921181D02*
X66283391Y-42921181D01*
X66473868Y-42206895D01*
X66664344Y-42921181D01*
X66902439Y-41921181D01*
X67664344Y-42873562D02*
X67569106Y-42921181D01*
X67378629Y-42921181D01*
X67283391Y-42873562D01*
X67235772Y-42778324D01*
X67235772Y-42397371D01*
X67283391Y-42302133D01*
X67378629Y-42254514D01*
X67569106Y-42254514D01*
X67664344Y-42302133D01*
X67711963Y-42397371D01*
X67711963Y-42492610D01*
X67235772Y-42587848D01*
X68140534Y-42921181D02*
X68140534Y-41921181D01*
X68473868Y-42635467D01*
X68807201Y-41921181D01*
X68807201Y-42921181D01*
X69426248Y-42921181D02*
X69331010Y-42873562D01*
X69283391Y-42825943D01*
X69235772Y-42730705D01*
X69235772Y-42444990D01*
X69283391Y-42349752D01*
X69331010Y-42302133D01*
X69426248Y-42254514D01*
X69569106Y-42254514D01*
X69664344Y-42302133D01*
X69711963Y-42349752D01*
X69759582Y-42444990D01*
X69759582Y-42730705D01*
X69711963Y-42825943D01*
X69664344Y-42873562D01*
X69569106Y-42921181D01*
X69426248Y-42921181D01*
X70140534Y-42873562D02*
X70235772Y-42921181D01*
X70426248Y-42921181D01*
X70521487Y-42873562D01*
X70569106Y-42778324D01*
X70569106Y-42730705D01*
X70521487Y-42635467D01*
X70426248Y-42587848D01*
X70283391Y-42587848D01*
X70188153Y-42540229D01*
X70140534Y-42444990D01*
X70140534Y-42397371D01*
X70188153Y-42302133D01*
X70283391Y-42254514D01*
X70426248Y-42254514D01*
X70521487Y-42302133D01*
X70759582Y-43016419D02*
X71521487Y-43016419D01*
X71759582Y-42921181D02*
X71759582Y-42254514D01*
X71759582Y-42349752D02*
X71807201Y-42302133D01*
X71902439Y-42254514D01*
X72045297Y-42254514D01*
X72140535Y-42302133D01*
X72188154Y-42397371D01*
X72188154Y-42921181D01*
X72188154Y-42397371D02*
X72235773Y-42302133D01*
X72331011Y-42254514D01*
X72473868Y-42254514D01*
X72569106Y-42302133D01*
X72616725Y-42397371D01*
X72616725Y-42921181D01*
X73092915Y-42921181D02*
X73092915Y-42254514D01*
X73092915Y-41921181D02*
X73045296Y-41968800D01*
X73092915Y-42016419D01*
X73140534Y-41968800D01*
X73092915Y-41921181D01*
X73092915Y-42016419D01*
X73569105Y-42254514D02*
X73569105Y-42921181D01*
X73569105Y-42349752D02*
X73616724Y-42302133D01*
X73711962Y-42254514D01*
X73854820Y-42254514D01*
X73950058Y-42302133D01*
X73997677Y-42397371D01*
X73997677Y-42921181D01*
X74473867Y-42921181D02*
X74473867Y-42254514D01*
X74473867Y-41921181D02*
X74426248Y-41968800D01*
X74473867Y-42016419D01*
X74521486Y-41968800D01*
X74473867Y-41921181D01*
X74473867Y-42016419D01*
M02*
