G04 #@! TF.FileFunction,Legend,Bot*
%FSLAX46Y46*%
G04 Gerber Fmt 4.6, Leading zero omitted, Abs format (unit mm)*
G04 Created by KiCad (PCBNEW 4.0.7-e2-6376~58~ubuntu16.04.1) date Sat May  5 11:14:25 2018*
%MOMM*%
%LPD*%
G01*
G04 APERTURE LIST*
%ADD10C,0.100000*%
%ADD11C,0.300000*%
G04 APERTURE END LIST*
D10*
D11*
X157622382Y-138542143D02*
X156955715Y-138542143D01*
X156670001Y-139589762D02*
X157622382Y-139589762D01*
X157622382Y-137589762D01*
X156670001Y-137589762D01*
X155812858Y-138256429D02*
X155812858Y-139589762D01*
X155812858Y-138446905D02*
X155717619Y-138351667D01*
X155527143Y-138256429D01*
X155241429Y-138256429D01*
X155050953Y-138351667D01*
X154955715Y-138542143D01*
X154955715Y-139589762D01*
X153146191Y-139589762D02*
X153146191Y-137589762D01*
X153146191Y-139494524D02*
X153336667Y-139589762D01*
X153717619Y-139589762D01*
X153908095Y-139494524D01*
X154003334Y-139399286D01*
X154098572Y-139208810D01*
X154098572Y-138637381D01*
X154003334Y-138446905D01*
X153908095Y-138351667D01*
X153717619Y-138256429D01*
X153336667Y-138256429D01*
X153146191Y-138351667D01*
X151431905Y-139494524D02*
X151622381Y-139589762D01*
X152003333Y-139589762D01*
X152193810Y-139494524D01*
X152289048Y-139304048D01*
X152289048Y-138542143D01*
X152193810Y-138351667D01*
X152003333Y-138256429D01*
X151622381Y-138256429D01*
X151431905Y-138351667D01*
X151336667Y-138542143D01*
X151336667Y-138732619D01*
X152289048Y-138923095D01*
X149812857Y-138542143D02*
X150479524Y-138542143D01*
X150479524Y-139589762D02*
X150479524Y-137589762D01*
X149527143Y-137589762D01*
X160098572Y-142794524D02*
X160289048Y-142889762D01*
X160670000Y-142889762D01*
X160860477Y-142794524D01*
X160955715Y-142604048D01*
X160955715Y-141842143D01*
X160860477Y-141651667D01*
X160670000Y-141556429D01*
X160289048Y-141556429D01*
X160098572Y-141651667D01*
X160003334Y-141842143D01*
X160003334Y-142032619D01*
X160955715Y-142223095D01*
X158289048Y-142794524D02*
X158479524Y-142889762D01*
X158860476Y-142889762D01*
X159050952Y-142794524D01*
X159146191Y-142699286D01*
X159241429Y-142508810D01*
X159241429Y-141937381D01*
X159146191Y-141746905D01*
X159050952Y-141651667D01*
X158860476Y-141556429D01*
X158479524Y-141556429D01*
X158289048Y-141651667D01*
X157146190Y-142889762D02*
X157336666Y-142794524D01*
X157431905Y-142699286D01*
X157527143Y-142508810D01*
X157527143Y-141937381D01*
X157431905Y-141746905D01*
X157336666Y-141651667D01*
X157146190Y-141556429D01*
X156860476Y-141556429D01*
X156670000Y-141651667D01*
X156574762Y-141746905D01*
X156479524Y-141937381D01*
X156479524Y-142508810D01*
X156574762Y-142699286D01*
X156670000Y-142794524D01*
X156860476Y-142889762D01*
X157146190Y-142889762D01*
X154955714Y-141842143D02*
X154670000Y-141937381D01*
X154574761Y-142032619D01*
X154479523Y-142223095D01*
X154479523Y-142508810D01*
X154574761Y-142699286D01*
X154670000Y-142794524D01*
X154860476Y-142889762D01*
X155622381Y-142889762D01*
X155622381Y-140889762D01*
X154955714Y-140889762D01*
X154765238Y-140985000D01*
X154670000Y-141080238D01*
X154574761Y-141270714D01*
X154574761Y-141461190D01*
X154670000Y-141651667D01*
X154765238Y-141746905D01*
X154955714Y-141842143D01*
X155622381Y-141842143D01*
X152860476Y-142794524D02*
X153050952Y-142889762D01*
X153431904Y-142889762D01*
X153622381Y-142794524D01*
X153717619Y-142604048D01*
X153717619Y-141842143D01*
X153622381Y-141651667D01*
X153431904Y-141556429D01*
X153050952Y-141556429D01*
X152860476Y-141651667D01*
X152765238Y-141842143D01*
X152765238Y-142032619D01*
X153717619Y-142223095D01*
X151050952Y-142889762D02*
X151050952Y-141842143D01*
X151146190Y-141651667D01*
X151336666Y-141556429D01*
X151717618Y-141556429D01*
X151908095Y-141651667D01*
X151050952Y-142794524D02*
X151241428Y-142889762D01*
X151717618Y-142889762D01*
X151908095Y-142794524D01*
X152003333Y-142604048D01*
X152003333Y-142413571D01*
X151908095Y-142223095D01*
X151717618Y-142127857D01*
X151241428Y-142127857D01*
X151050952Y-142032619D01*
X150384285Y-141556429D02*
X149622380Y-141556429D01*
X150098571Y-140889762D02*
X150098571Y-142604048D01*
X150003332Y-142794524D01*
X149812856Y-142889762D01*
X149622380Y-142889762D01*
X146384284Y-142889762D02*
X147527142Y-142889762D01*
X146955713Y-142889762D02*
X146955713Y-140889762D01*
X147146189Y-141175476D01*
X147336665Y-141365952D01*
X147527142Y-141461190D01*
M02*
