G04 #@! TF.FileFunction,Copper,L1,Top,Signal*
%FSLAX46Y46*%
G04 Gerber Fmt 4.6, Leading zero omitted, Abs format (unit mm)*
G04 Created by KiCad (PCBNEW 4.0.7-e2-6376~58~ubuntu16.04.1) date Sat May  5 11:14:25 2018*
%MOMM*%
%LPD*%
G01*
G04 APERTURE LIST*
%ADD10C,0.100000*%
%ADD11R,2.500000X1.100000*%
%ADD12O,2.500000X1.100000*%
%ADD13O,2.000000X2.500000*%
%ADD14C,3.649980*%
%ADD15R,2.000000X2.000000*%
%ADD16C,2.000000*%
%ADD17R,2.032000X1.727200*%
%ADD18O,2.032000X1.727200*%
%ADD19R,4.000000X3.000000*%
%ADD20R,1.000000X2.000000*%
%ADD21R,2.540000X2.540000*%
%ADD22C,2.540000*%
%ADD23C,1.998980*%
%ADD24R,1.300000X1.300000*%
%ADD25C,1.300000*%
%ADD26C,1.699260*%
%ADD27R,1.699260X1.699260*%
%ADD28O,1.600000X1.600000*%
%ADD29C,3.000000*%
%ADD30C,0.800000*%
%ADD31C,0.254000*%
G04 APERTURE END LIST*
D10*
D11*
X151065000Y-67310000D03*
D12*
X151065000Y-69310000D03*
X151065000Y-71310000D03*
X151065000Y-73310000D03*
X151065000Y-75310000D03*
X151065000Y-77310000D03*
X151065000Y-79310000D03*
X151065000Y-81310000D03*
X166465000Y-81310000D03*
X166365000Y-79310000D03*
X166465000Y-77310000D03*
X166465000Y-75310000D03*
X166465000Y-73310000D03*
X166465000Y-71310000D03*
X166465000Y-69310000D03*
X166465000Y-67310000D03*
D13*
X147860000Y-85265000D03*
X151860000Y-85265000D03*
X147860000Y-91265000D03*
X151860000Y-91265000D03*
D14*
X159862520Y-134620000D03*
X147993100Y-134620000D03*
D15*
X149479000Y-128270000D03*
D16*
X150749000Y-125730000D03*
X152019000Y-128270000D03*
X153289000Y-125730000D03*
X154559000Y-128270000D03*
X155829000Y-125730000D03*
X157099000Y-128270000D03*
X158369000Y-125730000D03*
D17*
X172720000Y-78740000D03*
D18*
X172720000Y-81280000D03*
X172720000Y-83820000D03*
X172720000Y-86360000D03*
X172720000Y-88900000D03*
X172720000Y-91440000D03*
D19*
X165100000Y-117015000D03*
D20*
X165100000Y-123015000D03*
X167100000Y-123015000D03*
X163100000Y-123015000D03*
D13*
X165005000Y-85265000D03*
X169005000Y-85265000D03*
X165005000Y-91265000D03*
X169005000Y-91265000D03*
D21*
X173500000Y-138515000D03*
D22*
X168420000Y-138515000D03*
D23*
X155829000Y-122555000D03*
X148209000Y-122555000D03*
X158750000Y-99695000D03*
X151130000Y-99695000D03*
X150749000Y-119380000D03*
X158369000Y-119380000D03*
X169545000Y-81280000D03*
X169545000Y-73660000D03*
X172720000Y-75565000D03*
X172720000Y-67945000D03*
D24*
X170815000Y-123190000D03*
D25*
X172815000Y-123190000D03*
D24*
X170815000Y-116840000D03*
D25*
X172815000Y-116840000D03*
D24*
X150749000Y-116205000D03*
D25*
X148249000Y-116205000D03*
D23*
X166370000Y-95250000D03*
X158750000Y-95250000D03*
D15*
X169545000Y-105410000D03*
D16*
X167005000Y-105410000D03*
D15*
X169545000Y-100965000D03*
D16*
X167005000Y-100965000D03*
D15*
X169545000Y-109855000D03*
D16*
X167005000Y-109855000D03*
D23*
X168275000Y-113665000D03*
X160655000Y-113665000D03*
X172720000Y-94615000D03*
X172720000Y-102235000D03*
X172720000Y-112395000D03*
X172720000Y-104775000D03*
D26*
X164467540Y-138430520D03*
D27*
X164467540Y-128270520D03*
D28*
X158115000Y-111760000D03*
X158115000Y-109220000D03*
X158115000Y-106680000D03*
X158115000Y-104140000D03*
X150495000Y-104140000D03*
X150495000Y-106680000D03*
X150495000Y-109220000D03*
X150495000Y-111760000D03*
D29*
X169855000Y-128065000D03*
D30*
X165100000Y-117015000D02*
X153210000Y-117015000D01*
X152400000Y-116205000D02*
X150749000Y-116205000D01*
X153035000Y-116840000D02*
X152400000Y-116205000D01*
X153210000Y-117015000D02*
X153035000Y-116840000D01*
X170815000Y-116840000D02*
X165275000Y-116840000D01*
X165275000Y-116840000D02*
X165100000Y-117015000D01*
X165100000Y-117015000D02*
X165100000Y-111760000D01*
X165100000Y-111760000D02*
X167005000Y-109855000D01*
X165100000Y-123015000D02*
X165100000Y-117015000D01*
X165765000Y-77310000D02*
X164940000Y-77310000D01*
X156940000Y-69310000D02*
X151765000Y-69310000D01*
X164940000Y-77310000D02*
X156940000Y-69310000D01*
X151765000Y-81310000D02*
X157510000Y-81310000D01*
X158750000Y-82550000D02*
X158750000Y-95250000D01*
X157510000Y-81310000D02*
X158750000Y-82550000D01*
X167005000Y-109855000D02*
X167005000Y-107950000D01*
X167005000Y-107950000D02*
X158750000Y-99695000D01*
X163830000Y-66040000D02*
X158750000Y-66040000D01*
X168275000Y-66040000D02*
X163830000Y-66040000D01*
X169545000Y-76835000D02*
X169545000Y-76200000D01*
X170815000Y-78740000D02*
X169545000Y-77470000D01*
X169545000Y-77470000D02*
X169545000Y-76835000D01*
X172720000Y-78740000D02*
X170815000Y-78740000D01*
X172720000Y-73025000D02*
X172720000Y-70485000D01*
X169545000Y-76200000D02*
X172720000Y-73025000D01*
X172720000Y-70485000D02*
X168275000Y-66040000D01*
X157480000Y-67310000D02*
X151765000Y-67310000D01*
X158750000Y-66040000D02*
X157480000Y-67310000D01*
X150749000Y-104140000D02*
X150749000Y-103886000D01*
X150749000Y-103886000D02*
X156845000Y-97790000D01*
X159385000Y-97790000D02*
X167005000Y-105410000D01*
X156845000Y-97790000D02*
X159385000Y-97790000D01*
X151765000Y-73310000D02*
X158400000Y-73310000D01*
X162560000Y-96520000D02*
X167005000Y-100965000D01*
X162560000Y-77470000D02*
X162560000Y-96520000D01*
X158400000Y-73310000D02*
X162560000Y-77470000D01*
X172720000Y-67945000D02*
X172720000Y-68580000D01*
X172625000Y-68040000D02*
X172720000Y-67945000D01*
X167100000Y-123015000D02*
X167100000Y-125638060D01*
X167100000Y-125638060D02*
X164467540Y-128270520D01*
X167100000Y-123015000D02*
X170640000Y-123015000D01*
X170640000Y-123015000D02*
X170815000Y-123190000D01*
X164552020Y-138515000D02*
X164467540Y-138430520D01*
X168420000Y-138515000D02*
X168420000Y-138285000D01*
D31*
G36*
X157051288Y-66275000D02*
X152729975Y-66275000D01*
X152566890Y-66163569D01*
X152315000Y-66112560D01*
X149815000Y-66112560D01*
X149579683Y-66156838D01*
X149363559Y-66295910D01*
X149218569Y-66508110D01*
X149167560Y-66760000D01*
X149167560Y-67860000D01*
X149211838Y-68095317D01*
X149350910Y-68311441D01*
X149538615Y-68439694D01*
X149490149Y-68472078D01*
X149233274Y-68856520D01*
X149143071Y-69310000D01*
X149233274Y-69763480D01*
X149490149Y-70147922D01*
X149732717Y-70310000D01*
X149490149Y-70472078D01*
X149233274Y-70856520D01*
X149143071Y-71310000D01*
X149233274Y-71763480D01*
X149490149Y-72147922D01*
X149732717Y-72310000D01*
X149490149Y-72472078D01*
X149233274Y-72856520D01*
X149143071Y-73310000D01*
X149233274Y-73763480D01*
X149490149Y-74147922D01*
X149732717Y-74310000D01*
X149490149Y-74472078D01*
X149233274Y-74856520D01*
X149143071Y-75310000D01*
X149233274Y-75763480D01*
X149490149Y-76147922D01*
X149732717Y-76310000D01*
X149490149Y-76472078D01*
X149233274Y-76856520D01*
X149143071Y-77310000D01*
X149233274Y-77763480D01*
X149490149Y-78147922D01*
X149732717Y-78310000D01*
X149490149Y-78472078D01*
X149233274Y-78856520D01*
X149143071Y-79310000D01*
X149233274Y-79763480D01*
X149490149Y-80147922D01*
X149732717Y-80310000D01*
X149490149Y-80472078D01*
X149233274Y-80856520D01*
X149143071Y-81310000D01*
X149233274Y-81763480D01*
X149490149Y-82147922D01*
X149874591Y-82404797D01*
X150328071Y-82495000D01*
X151801929Y-82495000D01*
X152255409Y-82404797D01*
X152344902Y-82345000D01*
X157081288Y-82345000D01*
X157715000Y-82978711D01*
X157715000Y-93973691D01*
X157365154Y-94322927D01*
X157115794Y-94923453D01*
X157115226Y-95573694D01*
X157363538Y-96174655D01*
X157822927Y-96634846D01*
X158112290Y-96755000D01*
X156845005Y-96755000D01*
X156845000Y-96754999D01*
X156448923Y-96833785D01*
X156113144Y-97058144D01*
X156113142Y-97058147D01*
X150466139Y-102705149D01*
X149917736Y-102814233D01*
X149452189Y-103125302D01*
X149141120Y-103590849D01*
X149031887Y-104140000D01*
X149141120Y-104689151D01*
X149452189Y-105154698D01*
X149834275Y-105410000D01*
X149452189Y-105665302D01*
X149141120Y-106130849D01*
X149031887Y-106680000D01*
X149141120Y-107229151D01*
X149452189Y-107694698D01*
X149834275Y-107950000D01*
X149452189Y-108205302D01*
X149141120Y-108670849D01*
X149031887Y-109220000D01*
X149141120Y-109769151D01*
X149452189Y-110234698D01*
X149834275Y-110490000D01*
X149452189Y-110745302D01*
X149141120Y-111210849D01*
X149031887Y-111760000D01*
X149141120Y-112309151D01*
X149452189Y-112774698D01*
X149917736Y-113085767D01*
X150466887Y-113195000D01*
X150523113Y-113195000D01*
X151072264Y-113085767D01*
X151537811Y-112774698D01*
X151848880Y-112309151D01*
X151958113Y-111760000D01*
X151848880Y-111210849D01*
X151537811Y-110745302D01*
X151155725Y-110490000D01*
X151537811Y-110234698D01*
X151848880Y-109769151D01*
X151958113Y-109220000D01*
X151848880Y-108670849D01*
X151537811Y-108205302D01*
X151155725Y-107950000D01*
X151537811Y-107694698D01*
X151848880Y-107229151D01*
X151958113Y-106680000D01*
X156651887Y-106680000D01*
X156761120Y-107229151D01*
X157072189Y-107694698D01*
X157454275Y-107950000D01*
X157072189Y-108205302D01*
X156761120Y-108670849D01*
X156651887Y-109220000D01*
X156761120Y-109769151D01*
X157072189Y-110234698D01*
X157454275Y-110490000D01*
X157072189Y-110745302D01*
X156761120Y-111210849D01*
X156651887Y-111760000D01*
X156761120Y-112309151D01*
X157072189Y-112774698D01*
X157537736Y-113085767D01*
X158086887Y-113195000D01*
X158143113Y-113195000D01*
X158692264Y-113085767D01*
X159157811Y-112774698D01*
X159468880Y-112309151D01*
X159578113Y-111760000D01*
X159468880Y-111210849D01*
X159157811Y-110745302D01*
X158775725Y-110490000D01*
X159157811Y-110234698D01*
X159468880Y-109769151D01*
X159578113Y-109220000D01*
X159468880Y-108670849D01*
X159157811Y-108205302D01*
X158775725Y-107950000D01*
X159157811Y-107694698D01*
X159468880Y-107229151D01*
X159578113Y-106680000D01*
X159468880Y-106130849D01*
X159157811Y-105665302D01*
X158753297Y-105395014D01*
X158970134Y-105292389D01*
X159346041Y-104877423D01*
X159506904Y-104489039D01*
X159384915Y-104267000D01*
X158242000Y-104267000D01*
X158242000Y-104287000D01*
X157988000Y-104287000D01*
X157988000Y-104267000D01*
X156845085Y-104267000D01*
X156723096Y-104489039D01*
X156883959Y-104877423D01*
X157259866Y-105292389D01*
X157476703Y-105395014D01*
X157072189Y-105665302D01*
X156761120Y-106130849D01*
X156651887Y-106680000D01*
X151958113Y-106680000D01*
X151848880Y-106130849D01*
X151537811Y-105665302D01*
X151155725Y-105410000D01*
X151537811Y-105154698D01*
X151848880Y-104689151D01*
X151957964Y-104140748D01*
X152307750Y-103790961D01*
X156723096Y-103790961D01*
X156845085Y-104013000D01*
X157988000Y-104013000D01*
X157988000Y-102869371D01*
X158242000Y-102869371D01*
X158242000Y-104013000D01*
X159384915Y-104013000D01*
X159506904Y-103790961D01*
X159346041Y-103402577D01*
X158970134Y-102987611D01*
X158464041Y-102748086D01*
X158242000Y-102869371D01*
X157988000Y-102869371D01*
X157765959Y-102748086D01*
X157259866Y-102987611D01*
X156883959Y-103402577D01*
X156723096Y-103790961D01*
X152307750Y-103790961D01*
X157273711Y-98825000D01*
X157341455Y-98825000D01*
X157115794Y-99368453D01*
X157115226Y-100018694D01*
X157363538Y-100619655D01*
X157822927Y-101079846D01*
X158423453Y-101329206D01*
X158920929Y-101329641D01*
X165970000Y-108378711D01*
X165970000Y-108577971D01*
X165619722Y-108927637D01*
X165370284Y-109528352D01*
X165369849Y-110026439D01*
X164368144Y-111028144D01*
X164143785Y-111363923D01*
X164064999Y-111760000D01*
X164065000Y-111760005D01*
X164065000Y-114867560D01*
X163100000Y-114867560D01*
X162864683Y-114911838D01*
X162648559Y-115050910D01*
X162503569Y-115263110D01*
X162452560Y-115515000D01*
X162452560Y-115980000D01*
X153638711Y-115980000D01*
X153131856Y-115473144D01*
X152796077Y-115248785D01*
X152400000Y-115169999D01*
X152399995Y-115170000D01*
X151905844Y-115170000D01*
X151863090Y-115103559D01*
X151650890Y-114958569D01*
X151399000Y-114907560D01*
X150099000Y-114907560D01*
X149863683Y-114951838D01*
X149647559Y-115090910D01*
X149502569Y-115303110D01*
X149451560Y-115555000D01*
X149451560Y-115717385D01*
X149378611Y-115541271D01*
X149148016Y-115485590D01*
X148428605Y-116205000D01*
X149148016Y-116924410D01*
X149378611Y-116868729D01*
X149451560Y-116659098D01*
X149451560Y-116855000D01*
X149495838Y-117090317D01*
X149634910Y-117306441D01*
X149847110Y-117451431D01*
X150099000Y-117502440D01*
X151399000Y-117502440D01*
X151634317Y-117458162D01*
X151850441Y-117319090D01*
X151904481Y-117240000D01*
X151971288Y-117240000D01*
X152303142Y-117571853D01*
X152303144Y-117571856D01*
X152478142Y-117746853D01*
X152478144Y-117746856D01*
X152669926Y-117875000D01*
X152813922Y-117971215D01*
X153210000Y-118050000D01*
X157387784Y-118050000D01*
X156984154Y-118452927D01*
X156734794Y-119053453D01*
X156734226Y-119703694D01*
X156982538Y-120304655D01*
X157441927Y-120764846D01*
X158042453Y-121014206D01*
X158692694Y-121014774D01*
X159293655Y-120766462D01*
X159753846Y-120307073D01*
X160003206Y-119706547D01*
X160003774Y-119056306D01*
X159755462Y-118455345D01*
X159350823Y-118050000D01*
X162452560Y-118050000D01*
X162452560Y-118515000D01*
X162496838Y-118750317D01*
X162635910Y-118966441D01*
X162848110Y-119111431D01*
X163100000Y-119162440D01*
X164065000Y-119162440D01*
X164065000Y-121581974D01*
X163959698Y-121476673D01*
X163726309Y-121380000D01*
X163385750Y-121380000D01*
X163227000Y-121538750D01*
X163227000Y-122888000D01*
X163247000Y-122888000D01*
X163247000Y-123142000D01*
X163227000Y-123142000D01*
X163227000Y-124491250D01*
X163385750Y-124650000D01*
X163726309Y-124650000D01*
X163959698Y-124553327D01*
X164100936Y-124412090D01*
X164135910Y-124466441D01*
X164348110Y-124611431D01*
X164600000Y-124662440D01*
X165600000Y-124662440D01*
X165835317Y-124618162D01*
X166051441Y-124479090D01*
X166065000Y-124459246D01*
X166065000Y-125209349D01*
X164500898Y-126773450D01*
X163617910Y-126773450D01*
X163382593Y-126817728D01*
X163166469Y-126956800D01*
X163021479Y-127169000D01*
X162970470Y-127420890D01*
X162970470Y-129120150D01*
X163014748Y-129355467D01*
X163153820Y-129571591D01*
X163366020Y-129716581D01*
X163617910Y-129767590D01*
X165317170Y-129767590D01*
X165552487Y-129723312D01*
X165768611Y-129584240D01*
X165772211Y-129578970D01*
X168520635Y-129578970D01*
X168680418Y-129897739D01*
X169471187Y-130207723D01*
X170320387Y-130191497D01*
X171029582Y-129897739D01*
X171189365Y-129578970D01*
X169855000Y-128244605D01*
X168520635Y-129578970D01*
X165772211Y-129578970D01*
X165913601Y-129372040D01*
X165964610Y-129120150D01*
X165964610Y-128237162D01*
X166520584Y-127681187D01*
X167712277Y-127681187D01*
X167728503Y-128530387D01*
X168022261Y-129239582D01*
X168341030Y-129399365D01*
X169675395Y-128065000D01*
X170034605Y-128065000D01*
X171368970Y-129399365D01*
X171687739Y-129239582D01*
X171997723Y-128448813D01*
X171981497Y-127599613D01*
X171687739Y-126890418D01*
X171368970Y-126730635D01*
X170034605Y-128065000D01*
X169675395Y-128065000D01*
X168341030Y-126730635D01*
X168022261Y-126890418D01*
X167712277Y-127681187D01*
X166520584Y-127681187D01*
X167650741Y-126551030D01*
X168520635Y-126551030D01*
X169855000Y-127885395D01*
X171189365Y-126551030D01*
X171029582Y-126232261D01*
X170238813Y-125922277D01*
X169389613Y-125938503D01*
X168680418Y-126232261D01*
X168520635Y-126551030D01*
X167650741Y-126551030D01*
X167831853Y-126369918D01*
X167831856Y-126369916D01*
X168056215Y-126034137D01*
X168075238Y-125938503D01*
X168135001Y-125638060D01*
X168135000Y-125638055D01*
X168135000Y-124356797D01*
X168196431Y-124266890D01*
X168240352Y-124050000D01*
X169557074Y-124050000D01*
X169561838Y-124075317D01*
X169700910Y-124291441D01*
X169913110Y-124436431D01*
X170165000Y-124487440D01*
X171465000Y-124487440D01*
X171700317Y-124443162D01*
X171916441Y-124304090D01*
X171993937Y-124190671D01*
X172095590Y-124089018D01*
X172151271Y-124319611D01*
X172634078Y-124487622D01*
X173144428Y-124458083D01*
X173478729Y-124319611D01*
X173534410Y-124089016D01*
X172815000Y-123369605D01*
X172800858Y-123383748D01*
X172621252Y-123204142D01*
X172635395Y-123190000D01*
X172994605Y-123190000D01*
X173714016Y-123909410D01*
X173944611Y-123853729D01*
X174112622Y-123370922D01*
X174083083Y-122860572D01*
X173944611Y-122526271D01*
X173714016Y-122470590D01*
X172994605Y-123190000D01*
X172635395Y-123190000D01*
X172621252Y-123175858D01*
X172800858Y-122996252D01*
X172815000Y-123010395D01*
X173534410Y-122290984D01*
X173478729Y-122060389D01*
X172995922Y-121892378D01*
X172485572Y-121921917D01*
X172151271Y-122060389D01*
X172095590Y-122290982D01*
X171993928Y-122189320D01*
X171929090Y-122088559D01*
X171716890Y-121943569D01*
X171465000Y-121892560D01*
X170165000Y-121892560D01*
X169929683Y-121936838D01*
X169862607Y-121980000D01*
X168240854Y-121980000D01*
X168203162Y-121779683D01*
X168064090Y-121563559D01*
X167851890Y-121418569D01*
X167600000Y-121367560D01*
X166600000Y-121367560D01*
X166364683Y-121411838D01*
X166148559Y-121550910D01*
X166135000Y-121570754D01*
X166135000Y-119162440D01*
X167100000Y-119162440D01*
X167335317Y-119118162D01*
X167551441Y-118979090D01*
X167696431Y-118766890D01*
X167747440Y-118515000D01*
X167747440Y-117875000D01*
X169658156Y-117875000D01*
X169700910Y-117941441D01*
X169913110Y-118086431D01*
X170165000Y-118137440D01*
X171465000Y-118137440D01*
X171700317Y-118093162D01*
X171916441Y-117954090D01*
X171993937Y-117840671D01*
X172095590Y-117739018D01*
X172151271Y-117969611D01*
X172634078Y-118137622D01*
X173144428Y-118108083D01*
X173478729Y-117969611D01*
X173534410Y-117739016D01*
X172815000Y-117019605D01*
X172800858Y-117033748D01*
X172621252Y-116854142D01*
X172635395Y-116840000D01*
X172994605Y-116840000D01*
X173714016Y-117559410D01*
X173944611Y-117503729D01*
X174112622Y-117020922D01*
X174083083Y-116510572D01*
X173944611Y-116176271D01*
X173714016Y-116120590D01*
X172994605Y-116840000D01*
X172635395Y-116840000D01*
X172621252Y-116825858D01*
X172800858Y-116646252D01*
X172815000Y-116660395D01*
X173534410Y-115940984D01*
X173478729Y-115710389D01*
X172995922Y-115542378D01*
X172485572Y-115571917D01*
X172151271Y-115710389D01*
X172095590Y-115940982D01*
X171993928Y-115839320D01*
X171929090Y-115738559D01*
X171716890Y-115593569D01*
X171465000Y-115542560D01*
X170165000Y-115542560D01*
X169929683Y-115586838D01*
X169713559Y-115725910D01*
X169659519Y-115805000D01*
X167747440Y-115805000D01*
X167747440Y-115515000D01*
X167703162Y-115279683D01*
X167632565Y-115169973D01*
X168010582Y-115310401D01*
X168660377Y-115286341D01*
X169148958Y-115083965D01*
X169247557Y-114817163D01*
X168275000Y-113844605D01*
X167302443Y-114817163D01*
X167338950Y-114915949D01*
X167100000Y-114867560D01*
X166135000Y-114867560D01*
X166135000Y-113400582D01*
X166629599Y-113400582D01*
X166653659Y-114050377D01*
X166856035Y-114538958D01*
X167122837Y-114637557D01*
X168095395Y-113665000D01*
X168454605Y-113665000D01*
X169427163Y-114637557D01*
X169693965Y-114538958D01*
X169920401Y-113929418D01*
X169906248Y-113547163D01*
X171747443Y-113547163D01*
X171846042Y-113813965D01*
X172455582Y-114040401D01*
X173105377Y-114016341D01*
X173593958Y-113813965D01*
X173692557Y-113547163D01*
X172720000Y-112574605D01*
X171747443Y-113547163D01*
X169906248Y-113547163D01*
X169896341Y-113279623D01*
X169693965Y-112791042D01*
X169427163Y-112692443D01*
X168454605Y-113665000D01*
X168095395Y-113665000D01*
X167122837Y-112692443D01*
X166856035Y-112791042D01*
X166629599Y-113400582D01*
X166135000Y-113400582D01*
X166135000Y-112512837D01*
X167302443Y-112512837D01*
X168275000Y-113485395D01*
X169247557Y-112512837D01*
X169148958Y-112246035D01*
X168838172Y-112130582D01*
X171074599Y-112130582D01*
X171098659Y-112780377D01*
X171301035Y-113268958D01*
X171567837Y-113367557D01*
X172540395Y-112395000D01*
X172899605Y-112395000D01*
X173872163Y-113367557D01*
X174138965Y-113268958D01*
X174365401Y-112659418D01*
X174341341Y-112009623D01*
X174138965Y-111521042D01*
X173872163Y-111422443D01*
X172899605Y-112395000D01*
X172540395Y-112395000D01*
X171567837Y-111422443D01*
X171301035Y-111521042D01*
X171074599Y-112130582D01*
X168838172Y-112130582D01*
X168539418Y-112019599D01*
X167889623Y-112043659D01*
X167401042Y-112246035D01*
X167302443Y-112512837D01*
X166135000Y-112512837D01*
X166135000Y-112188712D01*
X166833860Y-111489852D01*
X167328795Y-111490284D01*
X167929943Y-111241894D01*
X167996574Y-111175379D01*
X168080910Y-111306441D01*
X168293110Y-111451431D01*
X168545000Y-111502440D01*
X170545000Y-111502440D01*
X170780317Y-111458162D01*
X170996441Y-111319090D01*
X171048542Y-111242837D01*
X171747443Y-111242837D01*
X172720000Y-112215395D01*
X173692557Y-111242837D01*
X173593958Y-110976035D01*
X172984418Y-110749599D01*
X172334623Y-110773659D01*
X171846042Y-110976035D01*
X171747443Y-111242837D01*
X171048542Y-111242837D01*
X171141431Y-111106890D01*
X171192440Y-110855000D01*
X171192440Y-108855000D01*
X171148162Y-108619683D01*
X171009090Y-108403559D01*
X170796890Y-108258569D01*
X170545000Y-108207560D01*
X168545000Y-108207560D01*
X168309683Y-108251838D01*
X168093559Y-108390910D01*
X168040000Y-108469296D01*
X168040000Y-107950005D01*
X168040001Y-107950000D01*
X167961215Y-107553923D01*
X167736856Y-107218144D01*
X167736853Y-107218142D01*
X167495227Y-106976516D01*
X167929943Y-106796894D01*
X167996574Y-106730379D01*
X168080910Y-106861441D01*
X168293110Y-107006431D01*
X168545000Y-107057440D01*
X170545000Y-107057440D01*
X170780317Y-107013162D01*
X170996441Y-106874090D01*
X171141431Y-106661890D01*
X171192440Y-106410000D01*
X171192440Y-105358172D01*
X171333538Y-105699655D01*
X171792927Y-106159846D01*
X172393453Y-106409206D01*
X173043694Y-106409774D01*
X173644655Y-106161462D01*
X174104846Y-105702073D01*
X174354206Y-105101547D01*
X174354774Y-104451306D01*
X174106462Y-103850345D01*
X173761520Y-103504801D01*
X174104846Y-103162073D01*
X174354206Y-102561547D01*
X174354774Y-101911306D01*
X174106462Y-101310345D01*
X173647073Y-100850154D01*
X173046547Y-100600794D01*
X172396306Y-100600226D01*
X171795345Y-100848538D01*
X171335154Y-101307927D01*
X171192440Y-101651621D01*
X171192440Y-99965000D01*
X171148162Y-99729683D01*
X171009090Y-99513559D01*
X170796890Y-99368569D01*
X170545000Y-99317560D01*
X168545000Y-99317560D01*
X168309683Y-99361838D01*
X168093559Y-99500910D01*
X167996090Y-99643561D01*
X167932363Y-99579722D01*
X167331648Y-99330284D01*
X166833560Y-99329849D01*
X163595000Y-96091288D01*
X163595000Y-95573694D01*
X164735226Y-95573694D01*
X164983538Y-96174655D01*
X165442927Y-96634846D01*
X166043453Y-96884206D01*
X166693694Y-96884774D01*
X167294655Y-96636462D01*
X167754846Y-96177073D01*
X167925055Y-95767163D01*
X171747443Y-95767163D01*
X171846042Y-96033965D01*
X172455582Y-96260401D01*
X173105377Y-96236341D01*
X173593958Y-96033965D01*
X173692557Y-95767163D01*
X172720000Y-94794605D01*
X171747443Y-95767163D01*
X167925055Y-95767163D01*
X168004206Y-95576547D01*
X168004774Y-94926306D01*
X167766890Y-94350582D01*
X171074599Y-94350582D01*
X171098659Y-95000377D01*
X171301035Y-95488958D01*
X171567837Y-95587557D01*
X172540395Y-94615000D01*
X172899605Y-94615000D01*
X173872163Y-95587557D01*
X174138965Y-95488958D01*
X174365401Y-94879418D01*
X174341341Y-94229623D01*
X174138965Y-93741042D01*
X173872163Y-93642443D01*
X172899605Y-94615000D01*
X172540395Y-94615000D01*
X171567837Y-93642443D01*
X171301035Y-93741042D01*
X171074599Y-94350582D01*
X167766890Y-94350582D01*
X167756462Y-94325345D01*
X167297073Y-93865154D01*
X166696547Y-93615794D01*
X166046306Y-93615226D01*
X165445345Y-93863538D01*
X164985154Y-94322927D01*
X164735794Y-94923453D01*
X164735226Y-95573694D01*
X163595000Y-95573694D01*
X163595000Y-93462837D01*
X171747443Y-93462837D01*
X172720000Y-94435395D01*
X173692557Y-93462837D01*
X173593958Y-93196035D01*
X172984418Y-92969599D01*
X172334623Y-92993659D01*
X171846042Y-93196035D01*
X171747443Y-93462837D01*
X163595000Y-93462837D01*
X163595000Y-92328090D01*
X163848880Y-92708049D01*
X164379313Y-93062472D01*
X165005000Y-93186929D01*
X165630687Y-93062472D01*
X166161120Y-92708049D01*
X166515543Y-92177616D01*
X166620486Y-91650030D01*
X167366185Y-91650030D01*
X167542606Y-92266899D01*
X167941663Y-92769298D01*
X168502604Y-93080742D01*
X168624566Y-93105124D01*
X168878000Y-92985777D01*
X168878000Y-91392000D01*
X169132000Y-91392000D01*
X169132000Y-92985777D01*
X169385434Y-93105124D01*
X169507396Y-93080742D01*
X170068337Y-92769298D01*
X170467394Y-92266899D01*
X170601202Y-91799026D01*
X171112642Y-91799026D01*
X171115291Y-91814791D01*
X171369268Y-92342036D01*
X171805680Y-92731954D01*
X172358087Y-92925184D01*
X172593000Y-92780924D01*
X172593000Y-91567000D01*
X172847000Y-91567000D01*
X172847000Y-92780924D01*
X173081913Y-92925184D01*
X173634320Y-92731954D01*
X174070732Y-92342036D01*
X174324709Y-91814791D01*
X174327358Y-91799026D01*
X174206217Y-91567000D01*
X172847000Y-91567000D01*
X172593000Y-91567000D01*
X171233783Y-91567000D01*
X171112642Y-91799026D01*
X170601202Y-91799026D01*
X170643815Y-91650030D01*
X170486012Y-91392000D01*
X169132000Y-91392000D01*
X168878000Y-91392000D01*
X167523988Y-91392000D01*
X167366185Y-91650030D01*
X166620486Y-91650030D01*
X166640000Y-91551929D01*
X166640000Y-90978071D01*
X166620487Y-90879970D01*
X167366185Y-90879970D01*
X167523988Y-91138000D01*
X168878000Y-91138000D01*
X168878000Y-89544223D01*
X169132000Y-89544223D01*
X169132000Y-91138000D01*
X170486012Y-91138000D01*
X170643815Y-90879970D01*
X170467394Y-90263101D01*
X170068337Y-89760702D01*
X169507396Y-89449258D01*
X169385434Y-89424876D01*
X169132000Y-89544223D01*
X168878000Y-89544223D01*
X168624566Y-89424876D01*
X168502604Y-89449258D01*
X167941663Y-89760702D01*
X167542606Y-90263101D01*
X167366185Y-90879970D01*
X166620487Y-90879970D01*
X166515543Y-90352384D01*
X166161120Y-89821951D01*
X165630687Y-89467528D01*
X165005000Y-89343071D01*
X164379313Y-89467528D01*
X163848880Y-89821951D01*
X163595000Y-90201910D01*
X163595000Y-86328090D01*
X163848880Y-86708049D01*
X164379313Y-87062472D01*
X165005000Y-87186929D01*
X165630687Y-87062472D01*
X166161120Y-86708049D01*
X166515543Y-86177616D01*
X166620486Y-85650030D01*
X167366185Y-85650030D01*
X167542606Y-86266899D01*
X167941663Y-86769298D01*
X168502604Y-87080742D01*
X168624566Y-87105124D01*
X168878000Y-86985777D01*
X168878000Y-85392000D01*
X169132000Y-85392000D01*
X169132000Y-86985777D01*
X169385434Y-87105124D01*
X169507396Y-87080742D01*
X170068337Y-86769298D01*
X170467394Y-86266899D01*
X170643815Y-85650030D01*
X170486012Y-85392000D01*
X169132000Y-85392000D01*
X168878000Y-85392000D01*
X167523988Y-85392000D01*
X167366185Y-85650030D01*
X166620486Y-85650030D01*
X166640000Y-85551929D01*
X166640000Y-84978071D01*
X166620487Y-84879970D01*
X167366185Y-84879970D01*
X167523988Y-85138000D01*
X168878000Y-85138000D01*
X168878000Y-83544223D01*
X169132000Y-83544223D01*
X169132000Y-85138000D01*
X170486012Y-85138000D01*
X170643815Y-84879970D01*
X170467394Y-84263101D01*
X170068337Y-83760702D01*
X169507396Y-83449258D01*
X169385434Y-83424876D01*
X169132000Y-83544223D01*
X168878000Y-83544223D01*
X168624566Y-83424876D01*
X168502604Y-83449258D01*
X167941663Y-83760702D01*
X167542606Y-84263101D01*
X167366185Y-84879970D01*
X166620487Y-84879970D01*
X166515543Y-84352384D01*
X166161120Y-83821951D01*
X165630687Y-83467528D01*
X165005000Y-83343071D01*
X164379313Y-83467528D01*
X163848880Y-83821951D01*
X163595000Y-84201910D01*
X163595000Y-81619744D01*
X164621197Y-81619744D01*
X164621602Y-81646146D01*
X164837276Y-82058118D01*
X165194187Y-82356196D01*
X165638000Y-82495000D01*
X166338000Y-82495000D01*
X166338000Y-81437000D01*
X164746639Y-81437000D01*
X164621197Y-81619744D01*
X163595000Y-81619744D01*
X163595000Y-79619744D01*
X164521197Y-79619744D01*
X164521602Y-79646146D01*
X164737276Y-80058118D01*
X165088873Y-80351758D01*
X164837276Y-80561882D01*
X164621602Y-80973854D01*
X164621197Y-81000256D01*
X164746639Y-81183000D01*
X166338000Y-81183000D01*
X166338000Y-80125000D01*
X166238000Y-80125000D01*
X166238000Y-79437000D01*
X164646639Y-79437000D01*
X164521197Y-79619744D01*
X163595000Y-79619744D01*
X163595000Y-77470000D01*
X163584748Y-77418459D01*
X164208142Y-78041853D01*
X164208144Y-78041856D01*
X164543923Y-78266215D01*
X164940000Y-78345000D01*
X164996965Y-78345000D01*
X164737276Y-78561882D01*
X164521602Y-78973854D01*
X164521197Y-79000256D01*
X164646639Y-79183000D01*
X166238000Y-79183000D01*
X166238000Y-79163000D01*
X166492000Y-79163000D01*
X166492000Y-79183000D01*
X168083361Y-79183000D01*
X168208803Y-79000256D01*
X168208398Y-78973854D01*
X167992724Y-78561882D01*
X167738309Y-78349405D01*
X168039851Y-78147922D01*
X168296726Y-77763480D01*
X168386929Y-77310000D01*
X168296726Y-76856520D01*
X168039851Y-76472078D01*
X167797283Y-76310000D01*
X168039851Y-76147922D01*
X168296726Y-75763480D01*
X168386929Y-75310000D01*
X168296726Y-74856520D01*
X168039851Y-74472078D01*
X167797283Y-74310000D01*
X167991447Y-74180264D01*
X168158538Y-74584655D01*
X168617927Y-75044846D01*
X169054967Y-75226321D01*
X168813144Y-75468144D01*
X168588785Y-75803923D01*
X168509999Y-76200000D01*
X168510000Y-76200005D01*
X168510000Y-77469995D01*
X168509999Y-77470000D01*
X168588785Y-77866077D01*
X168813144Y-78201856D01*
X170083142Y-79471853D01*
X170083144Y-79471856D01*
X170280314Y-79603600D01*
X170418922Y-79696215D01*
X170815000Y-79775001D01*
X170815005Y-79775000D01*
X171088811Y-79775000D01*
X171100838Y-79838917D01*
X171239910Y-80055041D01*
X171452110Y-80200031D01*
X171493439Y-80208400D01*
X171475585Y-80220330D01*
X171150729Y-80706511D01*
X171126627Y-80827680D01*
X170931462Y-80355345D01*
X170472073Y-79895154D01*
X169871547Y-79645794D01*
X169221306Y-79645226D01*
X168620345Y-79893538D01*
X168160154Y-80352927D01*
X168078367Y-80549892D01*
X167741127Y-80268242D01*
X167992724Y-80058118D01*
X168208398Y-79646146D01*
X168208803Y-79619744D01*
X168083361Y-79437000D01*
X166492000Y-79437000D01*
X166492000Y-80495000D01*
X166592000Y-80495000D01*
X166592000Y-81183000D01*
X166612000Y-81183000D01*
X166612000Y-81437000D01*
X166592000Y-81437000D01*
X166592000Y-82495000D01*
X167292000Y-82495000D01*
X167735813Y-82356196D01*
X168092724Y-82058118D01*
X168095667Y-82052496D01*
X168158538Y-82204655D01*
X168617927Y-82664846D01*
X169218453Y-82914206D01*
X169868694Y-82914774D01*
X170469655Y-82666462D01*
X170929846Y-82207073D01*
X171126742Y-81732896D01*
X171150729Y-81853489D01*
X171475585Y-82339670D01*
X171790366Y-82550000D01*
X171475585Y-82760330D01*
X171150729Y-83246511D01*
X171036655Y-83820000D01*
X171150729Y-84393489D01*
X171475585Y-84879670D01*
X171790366Y-85090000D01*
X171475585Y-85300330D01*
X171150729Y-85786511D01*
X171036655Y-86360000D01*
X171150729Y-86933489D01*
X171475585Y-87419670D01*
X171790366Y-87630000D01*
X171475585Y-87840330D01*
X171150729Y-88326511D01*
X171036655Y-88900000D01*
X171150729Y-89473489D01*
X171475585Y-89959670D01*
X171785069Y-90166461D01*
X171369268Y-90537964D01*
X171115291Y-91065209D01*
X171112642Y-91080974D01*
X171233783Y-91313000D01*
X172593000Y-91313000D01*
X172593000Y-91293000D01*
X172847000Y-91293000D01*
X172847000Y-91313000D01*
X174206217Y-91313000D01*
X174327358Y-91080974D01*
X174324709Y-91065209D01*
X174070732Y-90537964D01*
X173654931Y-90166461D01*
X173964415Y-89959670D01*
X174289271Y-89473489D01*
X174403345Y-88900000D01*
X174289271Y-88326511D01*
X173964415Y-87840330D01*
X173649634Y-87630000D01*
X173964415Y-87419670D01*
X174289271Y-86933489D01*
X174403345Y-86360000D01*
X174289271Y-85786511D01*
X173964415Y-85300330D01*
X173649634Y-85090000D01*
X173964415Y-84879670D01*
X174289271Y-84393489D01*
X174403345Y-83820000D01*
X174289271Y-83246511D01*
X173964415Y-82760330D01*
X173649634Y-82550000D01*
X173964415Y-82339670D01*
X174289271Y-81853489D01*
X174403345Y-81280000D01*
X174289271Y-80706511D01*
X173964415Y-80220330D01*
X173950087Y-80210757D01*
X173971317Y-80206762D01*
X174187441Y-80067690D01*
X174332431Y-79855490D01*
X174383440Y-79603600D01*
X174383440Y-77876400D01*
X174339162Y-77641083D01*
X174200090Y-77424959D01*
X173987890Y-77279969D01*
X173736000Y-77228960D01*
X171704000Y-77228960D01*
X171468683Y-77273238D01*
X171252559Y-77412310D01*
X171130159Y-77591448D01*
X170580000Y-77041288D01*
X170580000Y-76717163D01*
X171747443Y-76717163D01*
X171846042Y-76983965D01*
X172455582Y-77210401D01*
X173105377Y-77186341D01*
X173593958Y-76983965D01*
X173692557Y-76717163D01*
X172720000Y-75744605D01*
X171747443Y-76717163D01*
X170580000Y-76717163D01*
X170580000Y-76628712D01*
X171145427Y-76063285D01*
X171301035Y-76438958D01*
X171567837Y-76537557D01*
X172540395Y-75565000D01*
X172899605Y-75565000D01*
X173872163Y-76537557D01*
X174138965Y-76438958D01*
X174365401Y-75829418D01*
X174341341Y-75179623D01*
X174138965Y-74691042D01*
X173872163Y-74592443D01*
X172899605Y-75565000D01*
X172540395Y-75565000D01*
X172526253Y-75550858D01*
X172705858Y-75371253D01*
X172720000Y-75385395D01*
X173692557Y-74412837D01*
X173593958Y-74146035D01*
X173206581Y-74002130D01*
X173451853Y-73756858D01*
X173451856Y-73756856D01*
X173676215Y-73421077D01*
X173698310Y-73310000D01*
X173755001Y-73025000D01*
X173755000Y-73024995D01*
X173755000Y-70485000D01*
X173676215Y-70088923D01*
X173676215Y-70088922D01*
X173586349Y-69954429D01*
X173451856Y-69753144D01*
X173451853Y-69753142D01*
X173209836Y-69511125D01*
X173644655Y-69331462D01*
X174104846Y-68872073D01*
X174354206Y-68271547D01*
X174354774Y-67621306D01*
X174106462Y-67020345D01*
X173647073Y-66560154D01*
X173046547Y-66310794D01*
X172396306Y-66310226D01*
X171795345Y-66558538D01*
X171335154Y-67017927D01*
X171153679Y-67454968D01*
X169230712Y-65532000D01*
X175415000Y-65532000D01*
X175415000Y-67950027D01*
X175357429Y-67973874D01*
X175041118Y-68185226D01*
X175041117Y-68185227D01*
X174845228Y-68381115D01*
X174633874Y-68697429D01*
X174610027Y-68755000D01*
X174527859Y-68953370D01*
X174453642Y-69326487D01*
X174453642Y-69396416D01*
X174440000Y-69465000D01*
X174440000Y-132465000D01*
X174453642Y-132533584D01*
X174453642Y-132603513D01*
X174527859Y-132976630D01*
X174557070Y-133047151D01*
X174633874Y-133232571D01*
X174845228Y-133548885D01*
X175041004Y-133744660D01*
X175041116Y-133744772D01*
X175357429Y-133956126D01*
X175415000Y-133979973D01*
X175415000Y-143255000D01*
X145895000Y-143255000D01*
X145895000Y-138724536D01*
X162982652Y-138724536D01*
X163208198Y-139270397D01*
X163625466Y-139688394D01*
X164170933Y-139914892D01*
X164761556Y-139915408D01*
X165307417Y-139689862D01*
X165725414Y-139272594D01*
X165883340Y-138892265D01*
X166514670Y-138892265D01*
X166804078Y-139592686D01*
X167339495Y-140129039D01*
X168039410Y-140419668D01*
X168797265Y-140420330D01*
X169497686Y-140130922D01*
X170034039Y-139595505D01*
X170324668Y-138895590D01*
X170324750Y-138800750D01*
X171595000Y-138800750D01*
X171595000Y-139911310D01*
X171691673Y-140144699D01*
X171870302Y-140323327D01*
X172103691Y-140420000D01*
X173214250Y-140420000D01*
X173373000Y-140261250D01*
X173373000Y-138642000D01*
X173627000Y-138642000D01*
X173627000Y-140261250D01*
X173785750Y-140420000D01*
X174896309Y-140420000D01*
X175129698Y-140323327D01*
X175308327Y-140144699D01*
X175405000Y-139911310D01*
X175405000Y-138800750D01*
X175246250Y-138642000D01*
X173627000Y-138642000D01*
X173373000Y-138642000D01*
X171753750Y-138642000D01*
X171595000Y-138800750D01*
X170324750Y-138800750D01*
X170325330Y-138137735D01*
X170035922Y-137437314D01*
X169717855Y-137118690D01*
X171595000Y-137118690D01*
X171595000Y-138229250D01*
X171753750Y-138388000D01*
X173373000Y-138388000D01*
X173373000Y-136768750D01*
X173627000Y-136768750D01*
X173627000Y-138388000D01*
X175246250Y-138388000D01*
X175405000Y-138229250D01*
X175405000Y-137118690D01*
X175308327Y-136885301D01*
X175129698Y-136706673D01*
X174896309Y-136610000D01*
X173785750Y-136610000D01*
X173627000Y-136768750D01*
X173373000Y-136768750D01*
X173214250Y-136610000D01*
X172103691Y-136610000D01*
X171870302Y-136706673D01*
X171691673Y-136885301D01*
X171595000Y-137118690D01*
X169717855Y-137118690D01*
X169500505Y-136900961D01*
X168800590Y-136610332D01*
X168042735Y-136609670D01*
X167342314Y-136899078D01*
X166805961Y-137434495D01*
X166515332Y-138134410D01*
X166514670Y-138892265D01*
X165883340Y-138892265D01*
X165951912Y-138727127D01*
X165952428Y-138136504D01*
X165726882Y-137590643D01*
X165309614Y-137172646D01*
X164764147Y-136946148D01*
X164173524Y-136945632D01*
X163627663Y-137171178D01*
X163209666Y-137588446D01*
X162983168Y-138133913D01*
X162982652Y-138724536D01*
X145895000Y-138724536D01*
X145895000Y-135984047D01*
X145906406Y-136011652D01*
X146597808Y-136704262D01*
X147501631Y-137079562D01*
X148480275Y-137080416D01*
X149384752Y-136706694D01*
X150077362Y-136015292D01*
X150452662Y-135111469D01*
X150452665Y-135107175D01*
X157402104Y-135107175D01*
X157775826Y-136011652D01*
X158467228Y-136704262D01*
X159371051Y-137079562D01*
X160349695Y-137080416D01*
X161254172Y-136706694D01*
X161946782Y-136015292D01*
X162322082Y-135111469D01*
X162322936Y-134132825D01*
X161949214Y-133228348D01*
X161257812Y-132535738D01*
X160353989Y-132160438D01*
X159375345Y-132159584D01*
X158470868Y-132533306D01*
X157778258Y-133224708D01*
X157402958Y-134128531D01*
X157402104Y-135107175D01*
X150452665Y-135107175D01*
X150453516Y-134132825D01*
X150079794Y-133228348D01*
X149388392Y-132535738D01*
X148484569Y-132160438D01*
X147505925Y-132159584D01*
X146870000Y-132422343D01*
X146870000Y-127270000D01*
X147831560Y-127270000D01*
X147831560Y-129270000D01*
X147875838Y-129505317D01*
X148014910Y-129721441D01*
X148227110Y-129866431D01*
X148479000Y-129917440D01*
X150479000Y-129917440D01*
X150714317Y-129873162D01*
X150930441Y-129734090D01*
X151027910Y-129591439D01*
X151091637Y-129655278D01*
X151692352Y-129904716D01*
X152342795Y-129905284D01*
X152943943Y-129656894D01*
X153178715Y-129422532D01*
X153586073Y-129422532D01*
X153684736Y-129689387D01*
X154294461Y-129915908D01*
X154944460Y-129891856D01*
X155433264Y-129689387D01*
X155531927Y-129422532D01*
X154559000Y-128449605D01*
X153586073Y-129422532D01*
X153178715Y-129422532D01*
X153371562Y-129230022D01*
X153406468Y-129242927D01*
X154379395Y-128270000D01*
X154365253Y-128255858D01*
X154544858Y-128076253D01*
X154559000Y-128090395D01*
X154573143Y-128076253D01*
X154752748Y-128255858D01*
X154738605Y-128270000D01*
X155711532Y-129242927D01*
X155746938Y-129229836D01*
X156171637Y-129655278D01*
X156772352Y-129904716D01*
X157422795Y-129905284D01*
X158023943Y-129656894D01*
X158484278Y-129197363D01*
X158733716Y-128596648D01*
X158734284Y-127946205D01*
X158494180Y-127365111D01*
X158692795Y-127365284D01*
X159293943Y-127116894D01*
X159754278Y-126657363D01*
X160003716Y-126056648D01*
X160004284Y-125406205D01*
X159755894Y-124805057D01*
X159296363Y-124344722D01*
X158695648Y-124095284D01*
X158045205Y-124094716D01*
X157444057Y-124343106D01*
X157098801Y-124687759D01*
X156756363Y-124344722D01*
X156268234Y-124142034D01*
X156753655Y-123941462D01*
X157213846Y-123482073D01*
X157289137Y-123300750D01*
X161965000Y-123300750D01*
X161965000Y-124141310D01*
X162061673Y-124374699D01*
X162240302Y-124553327D01*
X162473691Y-124650000D01*
X162814250Y-124650000D01*
X162973000Y-124491250D01*
X162973000Y-123142000D01*
X162123750Y-123142000D01*
X161965000Y-123300750D01*
X157289137Y-123300750D01*
X157463206Y-122881547D01*
X157463774Y-122231306D01*
X157322208Y-121888690D01*
X161965000Y-121888690D01*
X161965000Y-122729250D01*
X162123750Y-122888000D01*
X162973000Y-122888000D01*
X162973000Y-121538750D01*
X162814250Y-121380000D01*
X162473691Y-121380000D01*
X162240302Y-121476673D01*
X162061673Y-121655301D01*
X161965000Y-121888690D01*
X157322208Y-121888690D01*
X157215462Y-121630345D01*
X156756073Y-121170154D01*
X156155547Y-120920794D01*
X155505306Y-120920226D01*
X154904345Y-121168538D01*
X154444154Y-121627927D01*
X154194794Y-122228453D01*
X154194226Y-122878694D01*
X154442538Y-123479655D01*
X154901927Y-123939846D01*
X155389766Y-124142414D01*
X154904057Y-124343106D01*
X154558801Y-124687759D01*
X154216363Y-124344722D01*
X153615648Y-124095284D01*
X152965205Y-124094716D01*
X152364057Y-124343106D01*
X152018801Y-124687759D01*
X151676363Y-124344722D01*
X151075648Y-124095284D01*
X150425205Y-124094716D01*
X149824057Y-124343106D01*
X149363722Y-124802637D01*
X149114284Y-125403352D01*
X149113716Y-126053795D01*
X149348726Y-126622560D01*
X148479000Y-126622560D01*
X148243683Y-126666838D01*
X148027559Y-126805910D01*
X147882569Y-127018110D01*
X147831560Y-127270000D01*
X146870000Y-127270000D01*
X146870000Y-123707163D01*
X147236443Y-123707163D01*
X147335042Y-123973965D01*
X147944582Y-124200401D01*
X148594377Y-124176341D01*
X149082958Y-123973965D01*
X149181557Y-123707163D01*
X148209000Y-122734605D01*
X147236443Y-123707163D01*
X146870000Y-123707163D01*
X146870000Y-123458510D01*
X147056837Y-123527557D01*
X148029395Y-122555000D01*
X148388605Y-122555000D01*
X149361163Y-123527557D01*
X149627965Y-123428958D01*
X149854401Y-122819418D01*
X149830341Y-122169623D01*
X149627965Y-121681042D01*
X149361163Y-121582443D01*
X148388605Y-122555000D01*
X148029395Y-122555000D01*
X147056837Y-121582443D01*
X146870000Y-121651490D01*
X146870000Y-121402837D01*
X147236443Y-121402837D01*
X148209000Y-122375395D01*
X149181557Y-121402837D01*
X149082958Y-121136035D01*
X148473418Y-120909599D01*
X147823623Y-120933659D01*
X147335042Y-121136035D01*
X147236443Y-121402837D01*
X146870000Y-121402837D01*
X146870000Y-119703694D01*
X149114226Y-119703694D01*
X149362538Y-120304655D01*
X149821927Y-120764846D01*
X150422453Y-121014206D01*
X151072694Y-121014774D01*
X151673655Y-120766462D01*
X152133846Y-120307073D01*
X152383206Y-119706547D01*
X152383774Y-119056306D01*
X152135462Y-118455345D01*
X151676073Y-117995154D01*
X151075547Y-117745794D01*
X150425306Y-117745226D01*
X149824345Y-117993538D01*
X149364154Y-118452927D01*
X149114794Y-119053453D01*
X149114226Y-119703694D01*
X146870000Y-119703694D01*
X146870000Y-117104016D01*
X147529590Y-117104016D01*
X147585271Y-117334611D01*
X148068078Y-117502622D01*
X148578428Y-117473083D01*
X148912729Y-117334611D01*
X148968410Y-117104016D01*
X148249000Y-116384605D01*
X147529590Y-117104016D01*
X146870000Y-117104016D01*
X146870000Y-116024078D01*
X146951378Y-116024078D01*
X146980917Y-116534428D01*
X147119389Y-116868729D01*
X147349984Y-116924410D01*
X148069395Y-116205000D01*
X147349984Y-115485590D01*
X147119389Y-115541271D01*
X146951378Y-116024078D01*
X146870000Y-116024078D01*
X146870000Y-115305984D01*
X147529590Y-115305984D01*
X148249000Y-116025395D01*
X148968410Y-115305984D01*
X148912729Y-115075389D01*
X148429922Y-114907378D01*
X147919572Y-114936917D01*
X147585271Y-115075389D01*
X147529590Y-115305984D01*
X146870000Y-115305984D01*
X146870000Y-113988694D01*
X159020226Y-113988694D01*
X159268538Y-114589655D01*
X159727927Y-115049846D01*
X160328453Y-115299206D01*
X160978694Y-115299774D01*
X161579655Y-115051462D01*
X162039846Y-114592073D01*
X162289206Y-113991547D01*
X162289774Y-113341306D01*
X162041462Y-112740345D01*
X161582073Y-112280154D01*
X160981547Y-112030794D01*
X160331306Y-112030226D01*
X159730345Y-112278538D01*
X159270154Y-112737927D01*
X159020794Y-113338453D01*
X159020226Y-113988694D01*
X146870000Y-113988694D01*
X146870000Y-100018694D01*
X149495226Y-100018694D01*
X149743538Y-100619655D01*
X150202927Y-101079846D01*
X150803453Y-101329206D01*
X151453694Y-101329774D01*
X152054655Y-101081462D01*
X152514846Y-100622073D01*
X152764206Y-100021547D01*
X152764774Y-99371306D01*
X152516462Y-98770345D01*
X152057073Y-98310154D01*
X151456547Y-98060794D01*
X150806306Y-98060226D01*
X150205345Y-98308538D01*
X149745154Y-98767927D01*
X149495794Y-99368453D01*
X149495226Y-100018694D01*
X146870000Y-100018694D01*
X146870000Y-92819047D01*
X147234313Y-93062472D01*
X147860000Y-93186929D01*
X148485687Y-93062472D01*
X149016120Y-92708049D01*
X149370543Y-92177616D01*
X149475486Y-91650030D01*
X150221185Y-91650030D01*
X150397606Y-92266899D01*
X150796663Y-92769298D01*
X151357604Y-93080742D01*
X151479566Y-93105124D01*
X151733000Y-92985777D01*
X151733000Y-91392000D01*
X151987000Y-91392000D01*
X151987000Y-92985777D01*
X152240434Y-93105124D01*
X152362396Y-93080742D01*
X152923337Y-92769298D01*
X153322394Y-92266899D01*
X153498815Y-91650030D01*
X153341012Y-91392000D01*
X151987000Y-91392000D01*
X151733000Y-91392000D01*
X150378988Y-91392000D01*
X150221185Y-91650030D01*
X149475486Y-91650030D01*
X149495000Y-91551929D01*
X149495000Y-90978071D01*
X149475487Y-90879970D01*
X150221185Y-90879970D01*
X150378988Y-91138000D01*
X151733000Y-91138000D01*
X151733000Y-89544223D01*
X151987000Y-89544223D01*
X151987000Y-91138000D01*
X153341012Y-91138000D01*
X153498815Y-90879970D01*
X153322394Y-90263101D01*
X152923337Y-89760702D01*
X152362396Y-89449258D01*
X152240434Y-89424876D01*
X151987000Y-89544223D01*
X151733000Y-89544223D01*
X151479566Y-89424876D01*
X151357604Y-89449258D01*
X150796663Y-89760702D01*
X150397606Y-90263101D01*
X150221185Y-90879970D01*
X149475487Y-90879970D01*
X149370543Y-90352384D01*
X149016120Y-89821951D01*
X148485687Y-89467528D01*
X147860000Y-89343071D01*
X147234313Y-89467528D01*
X146870000Y-89710953D01*
X146870000Y-86819047D01*
X147234313Y-87062472D01*
X147860000Y-87186929D01*
X148485687Y-87062472D01*
X149016120Y-86708049D01*
X149370543Y-86177616D01*
X149475486Y-85650030D01*
X150221185Y-85650030D01*
X150397606Y-86266899D01*
X150796663Y-86769298D01*
X151357604Y-87080742D01*
X151479566Y-87105124D01*
X151733000Y-86985777D01*
X151733000Y-85392000D01*
X151987000Y-85392000D01*
X151987000Y-86985777D01*
X152240434Y-87105124D01*
X152362396Y-87080742D01*
X152923337Y-86769298D01*
X153322394Y-86266899D01*
X153498815Y-85650030D01*
X153341012Y-85392000D01*
X151987000Y-85392000D01*
X151733000Y-85392000D01*
X150378988Y-85392000D01*
X150221185Y-85650030D01*
X149475486Y-85650030D01*
X149495000Y-85551929D01*
X149495000Y-84978071D01*
X149475487Y-84879970D01*
X150221185Y-84879970D01*
X150378988Y-85138000D01*
X151733000Y-85138000D01*
X151733000Y-83544223D01*
X151987000Y-83544223D01*
X151987000Y-85138000D01*
X153341012Y-85138000D01*
X153498815Y-84879970D01*
X153322394Y-84263101D01*
X152923337Y-83760702D01*
X152362396Y-83449258D01*
X152240434Y-83424876D01*
X151987000Y-83544223D01*
X151733000Y-83544223D01*
X151479566Y-83424876D01*
X151357604Y-83449258D01*
X150796663Y-83760702D01*
X150397606Y-84263101D01*
X150221185Y-84879970D01*
X149475487Y-84879970D01*
X149370543Y-84352384D01*
X149016120Y-83821951D01*
X148485687Y-83467528D01*
X147860000Y-83343071D01*
X147234313Y-83467528D01*
X146870000Y-83710953D01*
X146870000Y-69465000D01*
X146855434Y-69391770D01*
X146855499Y-69328200D01*
X146781740Y-68955390D01*
X146691420Y-68736705D01*
X146675989Y-68699342D01*
X146465177Y-68383137D01*
X146269490Y-68187047D01*
X145953719Y-67975586D01*
X145949595Y-67973873D01*
X145895000Y-67951193D01*
X145895000Y-65532000D01*
X157794289Y-65532000D01*
X157051288Y-66275000D01*
X157051288Y-66275000D01*
G37*
X157051288Y-66275000D02*
X152729975Y-66275000D01*
X152566890Y-66163569D01*
X152315000Y-66112560D01*
X149815000Y-66112560D01*
X149579683Y-66156838D01*
X149363559Y-66295910D01*
X149218569Y-66508110D01*
X149167560Y-66760000D01*
X149167560Y-67860000D01*
X149211838Y-68095317D01*
X149350910Y-68311441D01*
X149538615Y-68439694D01*
X149490149Y-68472078D01*
X149233274Y-68856520D01*
X149143071Y-69310000D01*
X149233274Y-69763480D01*
X149490149Y-70147922D01*
X149732717Y-70310000D01*
X149490149Y-70472078D01*
X149233274Y-70856520D01*
X149143071Y-71310000D01*
X149233274Y-71763480D01*
X149490149Y-72147922D01*
X149732717Y-72310000D01*
X149490149Y-72472078D01*
X149233274Y-72856520D01*
X149143071Y-73310000D01*
X149233274Y-73763480D01*
X149490149Y-74147922D01*
X149732717Y-74310000D01*
X149490149Y-74472078D01*
X149233274Y-74856520D01*
X149143071Y-75310000D01*
X149233274Y-75763480D01*
X149490149Y-76147922D01*
X149732717Y-76310000D01*
X149490149Y-76472078D01*
X149233274Y-76856520D01*
X149143071Y-77310000D01*
X149233274Y-77763480D01*
X149490149Y-78147922D01*
X149732717Y-78310000D01*
X149490149Y-78472078D01*
X149233274Y-78856520D01*
X149143071Y-79310000D01*
X149233274Y-79763480D01*
X149490149Y-80147922D01*
X149732717Y-80310000D01*
X149490149Y-80472078D01*
X149233274Y-80856520D01*
X149143071Y-81310000D01*
X149233274Y-81763480D01*
X149490149Y-82147922D01*
X149874591Y-82404797D01*
X150328071Y-82495000D01*
X151801929Y-82495000D01*
X152255409Y-82404797D01*
X152344902Y-82345000D01*
X157081288Y-82345000D01*
X157715000Y-82978711D01*
X157715000Y-93973691D01*
X157365154Y-94322927D01*
X157115794Y-94923453D01*
X157115226Y-95573694D01*
X157363538Y-96174655D01*
X157822927Y-96634846D01*
X158112290Y-96755000D01*
X156845005Y-96755000D01*
X156845000Y-96754999D01*
X156448923Y-96833785D01*
X156113144Y-97058144D01*
X156113142Y-97058147D01*
X150466139Y-102705149D01*
X149917736Y-102814233D01*
X149452189Y-103125302D01*
X149141120Y-103590849D01*
X149031887Y-104140000D01*
X149141120Y-104689151D01*
X149452189Y-105154698D01*
X149834275Y-105410000D01*
X149452189Y-105665302D01*
X149141120Y-106130849D01*
X149031887Y-106680000D01*
X149141120Y-107229151D01*
X149452189Y-107694698D01*
X149834275Y-107950000D01*
X149452189Y-108205302D01*
X149141120Y-108670849D01*
X149031887Y-109220000D01*
X149141120Y-109769151D01*
X149452189Y-110234698D01*
X149834275Y-110490000D01*
X149452189Y-110745302D01*
X149141120Y-111210849D01*
X149031887Y-111760000D01*
X149141120Y-112309151D01*
X149452189Y-112774698D01*
X149917736Y-113085767D01*
X150466887Y-113195000D01*
X150523113Y-113195000D01*
X151072264Y-113085767D01*
X151537811Y-112774698D01*
X151848880Y-112309151D01*
X151958113Y-111760000D01*
X151848880Y-111210849D01*
X151537811Y-110745302D01*
X151155725Y-110490000D01*
X151537811Y-110234698D01*
X151848880Y-109769151D01*
X151958113Y-109220000D01*
X151848880Y-108670849D01*
X151537811Y-108205302D01*
X151155725Y-107950000D01*
X151537811Y-107694698D01*
X151848880Y-107229151D01*
X151958113Y-106680000D01*
X156651887Y-106680000D01*
X156761120Y-107229151D01*
X157072189Y-107694698D01*
X157454275Y-107950000D01*
X157072189Y-108205302D01*
X156761120Y-108670849D01*
X156651887Y-109220000D01*
X156761120Y-109769151D01*
X157072189Y-110234698D01*
X157454275Y-110490000D01*
X157072189Y-110745302D01*
X156761120Y-111210849D01*
X156651887Y-111760000D01*
X156761120Y-112309151D01*
X157072189Y-112774698D01*
X157537736Y-113085767D01*
X158086887Y-113195000D01*
X158143113Y-113195000D01*
X158692264Y-113085767D01*
X159157811Y-112774698D01*
X159468880Y-112309151D01*
X159578113Y-111760000D01*
X159468880Y-111210849D01*
X159157811Y-110745302D01*
X158775725Y-110490000D01*
X159157811Y-110234698D01*
X159468880Y-109769151D01*
X159578113Y-109220000D01*
X159468880Y-108670849D01*
X159157811Y-108205302D01*
X158775725Y-107950000D01*
X159157811Y-107694698D01*
X159468880Y-107229151D01*
X159578113Y-106680000D01*
X159468880Y-106130849D01*
X159157811Y-105665302D01*
X158753297Y-105395014D01*
X158970134Y-105292389D01*
X159346041Y-104877423D01*
X159506904Y-104489039D01*
X159384915Y-104267000D01*
X158242000Y-104267000D01*
X158242000Y-104287000D01*
X157988000Y-104287000D01*
X157988000Y-104267000D01*
X156845085Y-104267000D01*
X156723096Y-104489039D01*
X156883959Y-104877423D01*
X157259866Y-105292389D01*
X157476703Y-105395014D01*
X157072189Y-105665302D01*
X156761120Y-106130849D01*
X156651887Y-106680000D01*
X151958113Y-106680000D01*
X151848880Y-106130849D01*
X151537811Y-105665302D01*
X151155725Y-105410000D01*
X151537811Y-105154698D01*
X151848880Y-104689151D01*
X151957964Y-104140748D01*
X152307750Y-103790961D01*
X156723096Y-103790961D01*
X156845085Y-104013000D01*
X157988000Y-104013000D01*
X157988000Y-102869371D01*
X158242000Y-102869371D01*
X158242000Y-104013000D01*
X159384915Y-104013000D01*
X159506904Y-103790961D01*
X159346041Y-103402577D01*
X158970134Y-102987611D01*
X158464041Y-102748086D01*
X158242000Y-102869371D01*
X157988000Y-102869371D01*
X157765959Y-102748086D01*
X157259866Y-102987611D01*
X156883959Y-103402577D01*
X156723096Y-103790961D01*
X152307750Y-103790961D01*
X157273711Y-98825000D01*
X157341455Y-98825000D01*
X157115794Y-99368453D01*
X157115226Y-100018694D01*
X157363538Y-100619655D01*
X157822927Y-101079846D01*
X158423453Y-101329206D01*
X158920929Y-101329641D01*
X165970000Y-108378711D01*
X165970000Y-108577971D01*
X165619722Y-108927637D01*
X165370284Y-109528352D01*
X165369849Y-110026439D01*
X164368144Y-111028144D01*
X164143785Y-111363923D01*
X164064999Y-111760000D01*
X164065000Y-111760005D01*
X164065000Y-114867560D01*
X163100000Y-114867560D01*
X162864683Y-114911838D01*
X162648559Y-115050910D01*
X162503569Y-115263110D01*
X162452560Y-115515000D01*
X162452560Y-115980000D01*
X153638711Y-115980000D01*
X153131856Y-115473144D01*
X152796077Y-115248785D01*
X152400000Y-115169999D01*
X152399995Y-115170000D01*
X151905844Y-115170000D01*
X151863090Y-115103559D01*
X151650890Y-114958569D01*
X151399000Y-114907560D01*
X150099000Y-114907560D01*
X149863683Y-114951838D01*
X149647559Y-115090910D01*
X149502569Y-115303110D01*
X149451560Y-115555000D01*
X149451560Y-115717385D01*
X149378611Y-115541271D01*
X149148016Y-115485590D01*
X148428605Y-116205000D01*
X149148016Y-116924410D01*
X149378611Y-116868729D01*
X149451560Y-116659098D01*
X149451560Y-116855000D01*
X149495838Y-117090317D01*
X149634910Y-117306441D01*
X149847110Y-117451431D01*
X150099000Y-117502440D01*
X151399000Y-117502440D01*
X151634317Y-117458162D01*
X151850441Y-117319090D01*
X151904481Y-117240000D01*
X151971288Y-117240000D01*
X152303142Y-117571853D01*
X152303144Y-117571856D01*
X152478142Y-117746853D01*
X152478144Y-117746856D01*
X152669926Y-117875000D01*
X152813922Y-117971215D01*
X153210000Y-118050000D01*
X157387784Y-118050000D01*
X156984154Y-118452927D01*
X156734794Y-119053453D01*
X156734226Y-119703694D01*
X156982538Y-120304655D01*
X157441927Y-120764846D01*
X158042453Y-121014206D01*
X158692694Y-121014774D01*
X159293655Y-120766462D01*
X159753846Y-120307073D01*
X160003206Y-119706547D01*
X160003774Y-119056306D01*
X159755462Y-118455345D01*
X159350823Y-118050000D01*
X162452560Y-118050000D01*
X162452560Y-118515000D01*
X162496838Y-118750317D01*
X162635910Y-118966441D01*
X162848110Y-119111431D01*
X163100000Y-119162440D01*
X164065000Y-119162440D01*
X164065000Y-121581974D01*
X163959698Y-121476673D01*
X163726309Y-121380000D01*
X163385750Y-121380000D01*
X163227000Y-121538750D01*
X163227000Y-122888000D01*
X163247000Y-122888000D01*
X163247000Y-123142000D01*
X163227000Y-123142000D01*
X163227000Y-124491250D01*
X163385750Y-124650000D01*
X163726309Y-124650000D01*
X163959698Y-124553327D01*
X164100936Y-124412090D01*
X164135910Y-124466441D01*
X164348110Y-124611431D01*
X164600000Y-124662440D01*
X165600000Y-124662440D01*
X165835317Y-124618162D01*
X166051441Y-124479090D01*
X166065000Y-124459246D01*
X166065000Y-125209349D01*
X164500898Y-126773450D01*
X163617910Y-126773450D01*
X163382593Y-126817728D01*
X163166469Y-126956800D01*
X163021479Y-127169000D01*
X162970470Y-127420890D01*
X162970470Y-129120150D01*
X163014748Y-129355467D01*
X163153820Y-129571591D01*
X163366020Y-129716581D01*
X163617910Y-129767590D01*
X165317170Y-129767590D01*
X165552487Y-129723312D01*
X165768611Y-129584240D01*
X165772211Y-129578970D01*
X168520635Y-129578970D01*
X168680418Y-129897739D01*
X169471187Y-130207723D01*
X170320387Y-130191497D01*
X171029582Y-129897739D01*
X171189365Y-129578970D01*
X169855000Y-128244605D01*
X168520635Y-129578970D01*
X165772211Y-129578970D01*
X165913601Y-129372040D01*
X165964610Y-129120150D01*
X165964610Y-128237162D01*
X166520584Y-127681187D01*
X167712277Y-127681187D01*
X167728503Y-128530387D01*
X168022261Y-129239582D01*
X168341030Y-129399365D01*
X169675395Y-128065000D01*
X170034605Y-128065000D01*
X171368970Y-129399365D01*
X171687739Y-129239582D01*
X171997723Y-128448813D01*
X171981497Y-127599613D01*
X171687739Y-126890418D01*
X171368970Y-126730635D01*
X170034605Y-128065000D01*
X169675395Y-128065000D01*
X168341030Y-126730635D01*
X168022261Y-126890418D01*
X167712277Y-127681187D01*
X166520584Y-127681187D01*
X167650741Y-126551030D01*
X168520635Y-126551030D01*
X169855000Y-127885395D01*
X171189365Y-126551030D01*
X171029582Y-126232261D01*
X170238813Y-125922277D01*
X169389613Y-125938503D01*
X168680418Y-126232261D01*
X168520635Y-126551030D01*
X167650741Y-126551030D01*
X167831853Y-126369918D01*
X167831856Y-126369916D01*
X168056215Y-126034137D01*
X168075238Y-125938503D01*
X168135001Y-125638060D01*
X168135000Y-125638055D01*
X168135000Y-124356797D01*
X168196431Y-124266890D01*
X168240352Y-124050000D01*
X169557074Y-124050000D01*
X169561838Y-124075317D01*
X169700910Y-124291441D01*
X169913110Y-124436431D01*
X170165000Y-124487440D01*
X171465000Y-124487440D01*
X171700317Y-124443162D01*
X171916441Y-124304090D01*
X171993937Y-124190671D01*
X172095590Y-124089018D01*
X172151271Y-124319611D01*
X172634078Y-124487622D01*
X173144428Y-124458083D01*
X173478729Y-124319611D01*
X173534410Y-124089016D01*
X172815000Y-123369605D01*
X172800858Y-123383748D01*
X172621252Y-123204142D01*
X172635395Y-123190000D01*
X172994605Y-123190000D01*
X173714016Y-123909410D01*
X173944611Y-123853729D01*
X174112622Y-123370922D01*
X174083083Y-122860572D01*
X173944611Y-122526271D01*
X173714016Y-122470590D01*
X172994605Y-123190000D01*
X172635395Y-123190000D01*
X172621252Y-123175858D01*
X172800858Y-122996252D01*
X172815000Y-123010395D01*
X173534410Y-122290984D01*
X173478729Y-122060389D01*
X172995922Y-121892378D01*
X172485572Y-121921917D01*
X172151271Y-122060389D01*
X172095590Y-122290982D01*
X171993928Y-122189320D01*
X171929090Y-122088559D01*
X171716890Y-121943569D01*
X171465000Y-121892560D01*
X170165000Y-121892560D01*
X169929683Y-121936838D01*
X169862607Y-121980000D01*
X168240854Y-121980000D01*
X168203162Y-121779683D01*
X168064090Y-121563559D01*
X167851890Y-121418569D01*
X167600000Y-121367560D01*
X166600000Y-121367560D01*
X166364683Y-121411838D01*
X166148559Y-121550910D01*
X166135000Y-121570754D01*
X166135000Y-119162440D01*
X167100000Y-119162440D01*
X167335317Y-119118162D01*
X167551441Y-118979090D01*
X167696431Y-118766890D01*
X167747440Y-118515000D01*
X167747440Y-117875000D01*
X169658156Y-117875000D01*
X169700910Y-117941441D01*
X169913110Y-118086431D01*
X170165000Y-118137440D01*
X171465000Y-118137440D01*
X171700317Y-118093162D01*
X171916441Y-117954090D01*
X171993937Y-117840671D01*
X172095590Y-117739018D01*
X172151271Y-117969611D01*
X172634078Y-118137622D01*
X173144428Y-118108083D01*
X173478729Y-117969611D01*
X173534410Y-117739016D01*
X172815000Y-117019605D01*
X172800858Y-117033748D01*
X172621252Y-116854142D01*
X172635395Y-116840000D01*
X172994605Y-116840000D01*
X173714016Y-117559410D01*
X173944611Y-117503729D01*
X174112622Y-117020922D01*
X174083083Y-116510572D01*
X173944611Y-116176271D01*
X173714016Y-116120590D01*
X172994605Y-116840000D01*
X172635395Y-116840000D01*
X172621252Y-116825858D01*
X172800858Y-116646252D01*
X172815000Y-116660395D01*
X173534410Y-115940984D01*
X173478729Y-115710389D01*
X172995922Y-115542378D01*
X172485572Y-115571917D01*
X172151271Y-115710389D01*
X172095590Y-115940982D01*
X171993928Y-115839320D01*
X171929090Y-115738559D01*
X171716890Y-115593569D01*
X171465000Y-115542560D01*
X170165000Y-115542560D01*
X169929683Y-115586838D01*
X169713559Y-115725910D01*
X169659519Y-115805000D01*
X167747440Y-115805000D01*
X167747440Y-115515000D01*
X167703162Y-115279683D01*
X167632565Y-115169973D01*
X168010582Y-115310401D01*
X168660377Y-115286341D01*
X169148958Y-115083965D01*
X169247557Y-114817163D01*
X168275000Y-113844605D01*
X167302443Y-114817163D01*
X167338950Y-114915949D01*
X167100000Y-114867560D01*
X166135000Y-114867560D01*
X166135000Y-113400582D01*
X166629599Y-113400582D01*
X166653659Y-114050377D01*
X166856035Y-114538958D01*
X167122837Y-114637557D01*
X168095395Y-113665000D01*
X168454605Y-113665000D01*
X169427163Y-114637557D01*
X169693965Y-114538958D01*
X169920401Y-113929418D01*
X169906248Y-113547163D01*
X171747443Y-113547163D01*
X171846042Y-113813965D01*
X172455582Y-114040401D01*
X173105377Y-114016341D01*
X173593958Y-113813965D01*
X173692557Y-113547163D01*
X172720000Y-112574605D01*
X171747443Y-113547163D01*
X169906248Y-113547163D01*
X169896341Y-113279623D01*
X169693965Y-112791042D01*
X169427163Y-112692443D01*
X168454605Y-113665000D01*
X168095395Y-113665000D01*
X167122837Y-112692443D01*
X166856035Y-112791042D01*
X166629599Y-113400582D01*
X166135000Y-113400582D01*
X166135000Y-112512837D01*
X167302443Y-112512837D01*
X168275000Y-113485395D01*
X169247557Y-112512837D01*
X169148958Y-112246035D01*
X168838172Y-112130582D01*
X171074599Y-112130582D01*
X171098659Y-112780377D01*
X171301035Y-113268958D01*
X171567837Y-113367557D01*
X172540395Y-112395000D01*
X172899605Y-112395000D01*
X173872163Y-113367557D01*
X174138965Y-113268958D01*
X174365401Y-112659418D01*
X174341341Y-112009623D01*
X174138965Y-111521042D01*
X173872163Y-111422443D01*
X172899605Y-112395000D01*
X172540395Y-112395000D01*
X171567837Y-111422443D01*
X171301035Y-111521042D01*
X171074599Y-112130582D01*
X168838172Y-112130582D01*
X168539418Y-112019599D01*
X167889623Y-112043659D01*
X167401042Y-112246035D01*
X167302443Y-112512837D01*
X166135000Y-112512837D01*
X166135000Y-112188712D01*
X166833860Y-111489852D01*
X167328795Y-111490284D01*
X167929943Y-111241894D01*
X167996574Y-111175379D01*
X168080910Y-111306441D01*
X168293110Y-111451431D01*
X168545000Y-111502440D01*
X170545000Y-111502440D01*
X170780317Y-111458162D01*
X170996441Y-111319090D01*
X171048542Y-111242837D01*
X171747443Y-111242837D01*
X172720000Y-112215395D01*
X173692557Y-111242837D01*
X173593958Y-110976035D01*
X172984418Y-110749599D01*
X172334623Y-110773659D01*
X171846042Y-110976035D01*
X171747443Y-111242837D01*
X171048542Y-111242837D01*
X171141431Y-111106890D01*
X171192440Y-110855000D01*
X171192440Y-108855000D01*
X171148162Y-108619683D01*
X171009090Y-108403559D01*
X170796890Y-108258569D01*
X170545000Y-108207560D01*
X168545000Y-108207560D01*
X168309683Y-108251838D01*
X168093559Y-108390910D01*
X168040000Y-108469296D01*
X168040000Y-107950005D01*
X168040001Y-107950000D01*
X167961215Y-107553923D01*
X167736856Y-107218144D01*
X167736853Y-107218142D01*
X167495227Y-106976516D01*
X167929943Y-106796894D01*
X167996574Y-106730379D01*
X168080910Y-106861441D01*
X168293110Y-107006431D01*
X168545000Y-107057440D01*
X170545000Y-107057440D01*
X170780317Y-107013162D01*
X170996441Y-106874090D01*
X171141431Y-106661890D01*
X171192440Y-106410000D01*
X171192440Y-105358172D01*
X171333538Y-105699655D01*
X171792927Y-106159846D01*
X172393453Y-106409206D01*
X173043694Y-106409774D01*
X173644655Y-106161462D01*
X174104846Y-105702073D01*
X174354206Y-105101547D01*
X174354774Y-104451306D01*
X174106462Y-103850345D01*
X173761520Y-103504801D01*
X174104846Y-103162073D01*
X174354206Y-102561547D01*
X174354774Y-101911306D01*
X174106462Y-101310345D01*
X173647073Y-100850154D01*
X173046547Y-100600794D01*
X172396306Y-100600226D01*
X171795345Y-100848538D01*
X171335154Y-101307927D01*
X171192440Y-101651621D01*
X171192440Y-99965000D01*
X171148162Y-99729683D01*
X171009090Y-99513559D01*
X170796890Y-99368569D01*
X170545000Y-99317560D01*
X168545000Y-99317560D01*
X168309683Y-99361838D01*
X168093559Y-99500910D01*
X167996090Y-99643561D01*
X167932363Y-99579722D01*
X167331648Y-99330284D01*
X166833560Y-99329849D01*
X163595000Y-96091288D01*
X163595000Y-95573694D01*
X164735226Y-95573694D01*
X164983538Y-96174655D01*
X165442927Y-96634846D01*
X166043453Y-96884206D01*
X166693694Y-96884774D01*
X167294655Y-96636462D01*
X167754846Y-96177073D01*
X167925055Y-95767163D01*
X171747443Y-95767163D01*
X171846042Y-96033965D01*
X172455582Y-96260401D01*
X173105377Y-96236341D01*
X173593958Y-96033965D01*
X173692557Y-95767163D01*
X172720000Y-94794605D01*
X171747443Y-95767163D01*
X167925055Y-95767163D01*
X168004206Y-95576547D01*
X168004774Y-94926306D01*
X167766890Y-94350582D01*
X171074599Y-94350582D01*
X171098659Y-95000377D01*
X171301035Y-95488958D01*
X171567837Y-95587557D01*
X172540395Y-94615000D01*
X172899605Y-94615000D01*
X173872163Y-95587557D01*
X174138965Y-95488958D01*
X174365401Y-94879418D01*
X174341341Y-94229623D01*
X174138965Y-93741042D01*
X173872163Y-93642443D01*
X172899605Y-94615000D01*
X172540395Y-94615000D01*
X171567837Y-93642443D01*
X171301035Y-93741042D01*
X171074599Y-94350582D01*
X167766890Y-94350582D01*
X167756462Y-94325345D01*
X167297073Y-93865154D01*
X166696547Y-93615794D01*
X166046306Y-93615226D01*
X165445345Y-93863538D01*
X164985154Y-94322927D01*
X164735794Y-94923453D01*
X164735226Y-95573694D01*
X163595000Y-95573694D01*
X163595000Y-93462837D01*
X171747443Y-93462837D01*
X172720000Y-94435395D01*
X173692557Y-93462837D01*
X173593958Y-93196035D01*
X172984418Y-92969599D01*
X172334623Y-92993659D01*
X171846042Y-93196035D01*
X171747443Y-93462837D01*
X163595000Y-93462837D01*
X163595000Y-92328090D01*
X163848880Y-92708049D01*
X164379313Y-93062472D01*
X165005000Y-93186929D01*
X165630687Y-93062472D01*
X166161120Y-92708049D01*
X166515543Y-92177616D01*
X166620486Y-91650030D01*
X167366185Y-91650030D01*
X167542606Y-92266899D01*
X167941663Y-92769298D01*
X168502604Y-93080742D01*
X168624566Y-93105124D01*
X168878000Y-92985777D01*
X168878000Y-91392000D01*
X169132000Y-91392000D01*
X169132000Y-92985777D01*
X169385434Y-93105124D01*
X169507396Y-93080742D01*
X170068337Y-92769298D01*
X170467394Y-92266899D01*
X170601202Y-91799026D01*
X171112642Y-91799026D01*
X171115291Y-91814791D01*
X171369268Y-92342036D01*
X171805680Y-92731954D01*
X172358087Y-92925184D01*
X172593000Y-92780924D01*
X172593000Y-91567000D01*
X172847000Y-91567000D01*
X172847000Y-92780924D01*
X173081913Y-92925184D01*
X173634320Y-92731954D01*
X174070732Y-92342036D01*
X174324709Y-91814791D01*
X174327358Y-91799026D01*
X174206217Y-91567000D01*
X172847000Y-91567000D01*
X172593000Y-91567000D01*
X171233783Y-91567000D01*
X171112642Y-91799026D01*
X170601202Y-91799026D01*
X170643815Y-91650030D01*
X170486012Y-91392000D01*
X169132000Y-91392000D01*
X168878000Y-91392000D01*
X167523988Y-91392000D01*
X167366185Y-91650030D01*
X166620486Y-91650030D01*
X166640000Y-91551929D01*
X166640000Y-90978071D01*
X166620487Y-90879970D01*
X167366185Y-90879970D01*
X167523988Y-91138000D01*
X168878000Y-91138000D01*
X168878000Y-89544223D01*
X169132000Y-89544223D01*
X169132000Y-91138000D01*
X170486012Y-91138000D01*
X170643815Y-90879970D01*
X170467394Y-90263101D01*
X170068337Y-89760702D01*
X169507396Y-89449258D01*
X169385434Y-89424876D01*
X169132000Y-89544223D01*
X168878000Y-89544223D01*
X168624566Y-89424876D01*
X168502604Y-89449258D01*
X167941663Y-89760702D01*
X167542606Y-90263101D01*
X167366185Y-90879970D01*
X166620487Y-90879970D01*
X166515543Y-90352384D01*
X166161120Y-89821951D01*
X165630687Y-89467528D01*
X165005000Y-89343071D01*
X164379313Y-89467528D01*
X163848880Y-89821951D01*
X163595000Y-90201910D01*
X163595000Y-86328090D01*
X163848880Y-86708049D01*
X164379313Y-87062472D01*
X165005000Y-87186929D01*
X165630687Y-87062472D01*
X166161120Y-86708049D01*
X166515543Y-86177616D01*
X166620486Y-85650030D01*
X167366185Y-85650030D01*
X167542606Y-86266899D01*
X167941663Y-86769298D01*
X168502604Y-87080742D01*
X168624566Y-87105124D01*
X168878000Y-86985777D01*
X168878000Y-85392000D01*
X169132000Y-85392000D01*
X169132000Y-86985777D01*
X169385434Y-87105124D01*
X169507396Y-87080742D01*
X170068337Y-86769298D01*
X170467394Y-86266899D01*
X170643815Y-85650030D01*
X170486012Y-85392000D01*
X169132000Y-85392000D01*
X168878000Y-85392000D01*
X167523988Y-85392000D01*
X167366185Y-85650030D01*
X166620486Y-85650030D01*
X166640000Y-85551929D01*
X166640000Y-84978071D01*
X166620487Y-84879970D01*
X167366185Y-84879970D01*
X167523988Y-85138000D01*
X168878000Y-85138000D01*
X168878000Y-83544223D01*
X169132000Y-83544223D01*
X169132000Y-85138000D01*
X170486012Y-85138000D01*
X170643815Y-84879970D01*
X170467394Y-84263101D01*
X170068337Y-83760702D01*
X169507396Y-83449258D01*
X169385434Y-83424876D01*
X169132000Y-83544223D01*
X168878000Y-83544223D01*
X168624566Y-83424876D01*
X168502604Y-83449258D01*
X167941663Y-83760702D01*
X167542606Y-84263101D01*
X167366185Y-84879970D01*
X166620487Y-84879970D01*
X166515543Y-84352384D01*
X166161120Y-83821951D01*
X165630687Y-83467528D01*
X165005000Y-83343071D01*
X164379313Y-83467528D01*
X163848880Y-83821951D01*
X163595000Y-84201910D01*
X163595000Y-81619744D01*
X164621197Y-81619744D01*
X164621602Y-81646146D01*
X164837276Y-82058118D01*
X165194187Y-82356196D01*
X165638000Y-82495000D01*
X166338000Y-82495000D01*
X166338000Y-81437000D01*
X164746639Y-81437000D01*
X164621197Y-81619744D01*
X163595000Y-81619744D01*
X163595000Y-79619744D01*
X164521197Y-79619744D01*
X164521602Y-79646146D01*
X164737276Y-80058118D01*
X165088873Y-80351758D01*
X164837276Y-80561882D01*
X164621602Y-80973854D01*
X164621197Y-81000256D01*
X164746639Y-81183000D01*
X166338000Y-81183000D01*
X166338000Y-80125000D01*
X166238000Y-80125000D01*
X166238000Y-79437000D01*
X164646639Y-79437000D01*
X164521197Y-79619744D01*
X163595000Y-79619744D01*
X163595000Y-77470000D01*
X163584748Y-77418459D01*
X164208142Y-78041853D01*
X164208144Y-78041856D01*
X164543923Y-78266215D01*
X164940000Y-78345000D01*
X164996965Y-78345000D01*
X164737276Y-78561882D01*
X164521602Y-78973854D01*
X164521197Y-79000256D01*
X164646639Y-79183000D01*
X166238000Y-79183000D01*
X166238000Y-79163000D01*
X166492000Y-79163000D01*
X166492000Y-79183000D01*
X168083361Y-79183000D01*
X168208803Y-79000256D01*
X168208398Y-78973854D01*
X167992724Y-78561882D01*
X167738309Y-78349405D01*
X168039851Y-78147922D01*
X168296726Y-77763480D01*
X168386929Y-77310000D01*
X168296726Y-76856520D01*
X168039851Y-76472078D01*
X167797283Y-76310000D01*
X168039851Y-76147922D01*
X168296726Y-75763480D01*
X168386929Y-75310000D01*
X168296726Y-74856520D01*
X168039851Y-74472078D01*
X167797283Y-74310000D01*
X167991447Y-74180264D01*
X168158538Y-74584655D01*
X168617927Y-75044846D01*
X169054967Y-75226321D01*
X168813144Y-75468144D01*
X168588785Y-75803923D01*
X168509999Y-76200000D01*
X168510000Y-76200005D01*
X168510000Y-77469995D01*
X168509999Y-77470000D01*
X168588785Y-77866077D01*
X168813144Y-78201856D01*
X170083142Y-79471853D01*
X170083144Y-79471856D01*
X170280314Y-79603600D01*
X170418922Y-79696215D01*
X170815000Y-79775001D01*
X170815005Y-79775000D01*
X171088811Y-79775000D01*
X171100838Y-79838917D01*
X171239910Y-80055041D01*
X171452110Y-80200031D01*
X171493439Y-80208400D01*
X171475585Y-80220330D01*
X171150729Y-80706511D01*
X171126627Y-80827680D01*
X170931462Y-80355345D01*
X170472073Y-79895154D01*
X169871547Y-79645794D01*
X169221306Y-79645226D01*
X168620345Y-79893538D01*
X168160154Y-80352927D01*
X168078367Y-80549892D01*
X167741127Y-80268242D01*
X167992724Y-80058118D01*
X168208398Y-79646146D01*
X168208803Y-79619744D01*
X168083361Y-79437000D01*
X166492000Y-79437000D01*
X166492000Y-80495000D01*
X166592000Y-80495000D01*
X166592000Y-81183000D01*
X166612000Y-81183000D01*
X166612000Y-81437000D01*
X166592000Y-81437000D01*
X166592000Y-82495000D01*
X167292000Y-82495000D01*
X167735813Y-82356196D01*
X168092724Y-82058118D01*
X168095667Y-82052496D01*
X168158538Y-82204655D01*
X168617927Y-82664846D01*
X169218453Y-82914206D01*
X169868694Y-82914774D01*
X170469655Y-82666462D01*
X170929846Y-82207073D01*
X171126742Y-81732896D01*
X171150729Y-81853489D01*
X171475585Y-82339670D01*
X171790366Y-82550000D01*
X171475585Y-82760330D01*
X171150729Y-83246511D01*
X171036655Y-83820000D01*
X171150729Y-84393489D01*
X171475585Y-84879670D01*
X171790366Y-85090000D01*
X171475585Y-85300330D01*
X171150729Y-85786511D01*
X171036655Y-86360000D01*
X171150729Y-86933489D01*
X171475585Y-87419670D01*
X171790366Y-87630000D01*
X171475585Y-87840330D01*
X171150729Y-88326511D01*
X171036655Y-88900000D01*
X171150729Y-89473489D01*
X171475585Y-89959670D01*
X171785069Y-90166461D01*
X171369268Y-90537964D01*
X171115291Y-91065209D01*
X171112642Y-91080974D01*
X171233783Y-91313000D01*
X172593000Y-91313000D01*
X172593000Y-91293000D01*
X172847000Y-91293000D01*
X172847000Y-91313000D01*
X174206217Y-91313000D01*
X174327358Y-91080974D01*
X174324709Y-91065209D01*
X174070732Y-90537964D01*
X173654931Y-90166461D01*
X173964415Y-89959670D01*
X174289271Y-89473489D01*
X174403345Y-88900000D01*
X174289271Y-88326511D01*
X173964415Y-87840330D01*
X173649634Y-87630000D01*
X173964415Y-87419670D01*
X174289271Y-86933489D01*
X174403345Y-86360000D01*
X174289271Y-85786511D01*
X173964415Y-85300330D01*
X173649634Y-85090000D01*
X173964415Y-84879670D01*
X174289271Y-84393489D01*
X174403345Y-83820000D01*
X174289271Y-83246511D01*
X173964415Y-82760330D01*
X173649634Y-82550000D01*
X173964415Y-82339670D01*
X174289271Y-81853489D01*
X174403345Y-81280000D01*
X174289271Y-80706511D01*
X173964415Y-80220330D01*
X173950087Y-80210757D01*
X173971317Y-80206762D01*
X174187441Y-80067690D01*
X174332431Y-79855490D01*
X174383440Y-79603600D01*
X174383440Y-77876400D01*
X174339162Y-77641083D01*
X174200090Y-77424959D01*
X173987890Y-77279969D01*
X173736000Y-77228960D01*
X171704000Y-77228960D01*
X171468683Y-77273238D01*
X171252559Y-77412310D01*
X171130159Y-77591448D01*
X170580000Y-77041288D01*
X170580000Y-76717163D01*
X171747443Y-76717163D01*
X171846042Y-76983965D01*
X172455582Y-77210401D01*
X173105377Y-77186341D01*
X173593958Y-76983965D01*
X173692557Y-76717163D01*
X172720000Y-75744605D01*
X171747443Y-76717163D01*
X170580000Y-76717163D01*
X170580000Y-76628712D01*
X171145427Y-76063285D01*
X171301035Y-76438958D01*
X171567837Y-76537557D01*
X172540395Y-75565000D01*
X172899605Y-75565000D01*
X173872163Y-76537557D01*
X174138965Y-76438958D01*
X174365401Y-75829418D01*
X174341341Y-75179623D01*
X174138965Y-74691042D01*
X173872163Y-74592443D01*
X172899605Y-75565000D01*
X172540395Y-75565000D01*
X172526253Y-75550858D01*
X172705858Y-75371253D01*
X172720000Y-75385395D01*
X173692557Y-74412837D01*
X173593958Y-74146035D01*
X173206581Y-74002130D01*
X173451853Y-73756858D01*
X173451856Y-73756856D01*
X173676215Y-73421077D01*
X173698310Y-73310000D01*
X173755001Y-73025000D01*
X173755000Y-73024995D01*
X173755000Y-70485000D01*
X173676215Y-70088923D01*
X173676215Y-70088922D01*
X173586349Y-69954429D01*
X173451856Y-69753144D01*
X173451853Y-69753142D01*
X173209836Y-69511125D01*
X173644655Y-69331462D01*
X174104846Y-68872073D01*
X174354206Y-68271547D01*
X174354774Y-67621306D01*
X174106462Y-67020345D01*
X173647073Y-66560154D01*
X173046547Y-66310794D01*
X172396306Y-66310226D01*
X171795345Y-66558538D01*
X171335154Y-67017927D01*
X171153679Y-67454968D01*
X169230712Y-65532000D01*
X175415000Y-65532000D01*
X175415000Y-67950027D01*
X175357429Y-67973874D01*
X175041118Y-68185226D01*
X175041117Y-68185227D01*
X174845228Y-68381115D01*
X174633874Y-68697429D01*
X174610027Y-68755000D01*
X174527859Y-68953370D01*
X174453642Y-69326487D01*
X174453642Y-69396416D01*
X174440000Y-69465000D01*
X174440000Y-132465000D01*
X174453642Y-132533584D01*
X174453642Y-132603513D01*
X174527859Y-132976630D01*
X174557070Y-133047151D01*
X174633874Y-133232571D01*
X174845228Y-133548885D01*
X175041004Y-133744660D01*
X175041116Y-133744772D01*
X175357429Y-133956126D01*
X175415000Y-133979973D01*
X175415000Y-143255000D01*
X145895000Y-143255000D01*
X145895000Y-138724536D01*
X162982652Y-138724536D01*
X163208198Y-139270397D01*
X163625466Y-139688394D01*
X164170933Y-139914892D01*
X164761556Y-139915408D01*
X165307417Y-139689862D01*
X165725414Y-139272594D01*
X165883340Y-138892265D01*
X166514670Y-138892265D01*
X166804078Y-139592686D01*
X167339495Y-140129039D01*
X168039410Y-140419668D01*
X168797265Y-140420330D01*
X169497686Y-140130922D01*
X170034039Y-139595505D01*
X170324668Y-138895590D01*
X170324750Y-138800750D01*
X171595000Y-138800750D01*
X171595000Y-139911310D01*
X171691673Y-140144699D01*
X171870302Y-140323327D01*
X172103691Y-140420000D01*
X173214250Y-140420000D01*
X173373000Y-140261250D01*
X173373000Y-138642000D01*
X173627000Y-138642000D01*
X173627000Y-140261250D01*
X173785750Y-140420000D01*
X174896309Y-140420000D01*
X175129698Y-140323327D01*
X175308327Y-140144699D01*
X175405000Y-139911310D01*
X175405000Y-138800750D01*
X175246250Y-138642000D01*
X173627000Y-138642000D01*
X173373000Y-138642000D01*
X171753750Y-138642000D01*
X171595000Y-138800750D01*
X170324750Y-138800750D01*
X170325330Y-138137735D01*
X170035922Y-137437314D01*
X169717855Y-137118690D01*
X171595000Y-137118690D01*
X171595000Y-138229250D01*
X171753750Y-138388000D01*
X173373000Y-138388000D01*
X173373000Y-136768750D01*
X173627000Y-136768750D01*
X173627000Y-138388000D01*
X175246250Y-138388000D01*
X175405000Y-138229250D01*
X175405000Y-137118690D01*
X175308327Y-136885301D01*
X175129698Y-136706673D01*
X174896309Y-136610000D01*
X173785750Y-136610000D01*
X173627000Y-136768750D01*
X173373000Y-136768750D01*
X173214250Y-136610000D01*
X172103691Y-136610000D01*
X171870302Y-136706673D01*
X171691673Y-136885301D01*
X171595000Y-137118690D01*
X169717855Y-137118690D01*
X169500505Y-136900961D01*
X168800590Y-136610332D01*
X168042735Y-136609670D01*
X167342314Y-136899078D01*
X166805961Y-137434495D01*
X166515332Y-138134410D01*
X166514670Y-138892265D01*
X165883340Y-138892265D01*
X165951912Y-138727127D01*
X165952428Y-138136504D01*
X165726882Y-137590643D01*
X165309614Y-137172646D01*
X164764147Y-136946148D01*
X164173524Y-136945632D01*
X163627663Y-137171178D01*
X163209666Y-137588446D01*
X162983168Y-138133913D01*
X162982652Y-138724536D01*
X145895000Y-138724536D01*
X145895000Y-135984047D01*
X145906406Y-136011652D01*
X146597808Y-136704262D01*
X147501631Y-137079562D01*
X148480275Y-137080416D01*
X149384752Y-136706694D01*
X150077362Y-136015292D01*
X150452662Y-135111469D01*
X150452665Y-135107175D01*
X157402104Y-135107175D01*
X157775826Y-136011652D01*
X158467228Y-136704262D01*
X159371051Y-137079562D01*
X160349695Y-137080416D01*
X161254172Y-136706694D01*
X161946782Y-136015292D01*
X162322082Y-135111469D01*
X162322936Y-134132825D01*
X161949214Y-133228348D01*
X161257812Y-132535738D01*
X160353989Y-132160438D01*
X159375345Y-132159584D01*
X158470868Y-132533306D01*
X157778258Y-133224708D01*
X157402958Y-134128531D01*
X157402104Y-135107175D01*
X150452665Y-135107175D01*
X150453516Y-134132825D01*
X150079794Y-133228348D01*
X149388392Y-132535738D01*
X148484569Y-132160438D01*
X147505925Y-132159584D01*
X146870000Y-132422343D01*
X146870000Y-127270000D01*
X147831560Y-127270000D01*
X147831560Y-129270000D01*
X147875838Y-129505317D01*
X148014910Y-129721441D01*
X148227110Y-129866431D01*
X148479000Y-129917440D01*
X150479000Y-129917440D01*
X150714317Y-129873162D01*
X150930441Y-129734090D01*
X151027910Y-129591439D01*
X151091637Y-129655278D01*
X151692352Y-129904716D01*
X152342795Y-129905284D01*
X152943943Y-129656894D01*
X153178715Y-129422532D01*
X153586073Y-129422532D01*
X153684736Y-129689387D01*
X154294461Y-129915908D01*
X154944460Y-129891856D01*
X155433264Y-129689387D01*
X155531927Y-129422532D01*
X154559000Y-128449605D01*
X153586073Y-129422532D01*
X153178715Y-129422532D01*
X153371562Y-129230022D01*
X153406468Y-129242927D01*
X154379395Y-128270000D01*
X154365253Y-128255858D01*
X154544858Y-128076253D01*
X154559000Y-128090395D01*
X154573143Y-128076253D01*
X154752748Y-128255858D01*
X154738605Y-128270000D01*
X155711532Y-129242927D01*
X155746938Y-129229836D01*
X156171637Y-129655278D01*
X156772352Y-129904716D01*
X157422795Y-129905284D01*
X158023943Y-129656894D01*
X158484278Y-129197363D01*
X158733716Y-128596648D01*
X158734284Y-127946205D01*
X158494180Y-127365111D01*
X158692795Y-127365284D01*
X159293943Y-127116894D01*
X159754278Y-126657363D01*
X160003716Y-126056648D01*
X160004284Y-125406205D01*
X159755894Y-124805057D01*
X159296363Y-124344722D01*
X158695648Y-124095284D01*
X158045205Y-124094716D01*
X157444057Y-124343106D01*
X157098801Y-124687759D01*
X156756363Y-124344722D01*
X156268234Y-124142034D01*
X156753655Y-123941462D01*
X157213846Y-123482073D01*
X157289137Y-123300750D01*
X161965000Y-123300750D01*
X161965000Y-124141310D01*
X162061673Y-124374699D01*
X162240302Y-124553327D01*
X162473691Y-124650000D01*
X162814250Y-124650000D01*
X162973000Y-124491250D01*
X162973000Y-123142000D01*
X162123750Y-123142000D01*
X161965000Y-123300750D01*
X157289137Y-123300750D01*
X157463206Y-122881547D01*
X157463774Y-122231306D01*
X157322208Y-121888690D01*
X161965000Y-121888690D01*
X161965000Y-122729250D01*
X162123750Y-122888000D01*
X162973000Y-122888000D01*
X162973000Y-121538750D01*
X162814250Y-121380000D01*
X162473691Y-121380000D01*
X162240302Y-121476673D01*
X162061673Y-121655301D01*
X161965000Y-121888690D01*
X157322208Y-121888690D01*
X157215462Y-121630345D01*
X156756073Y-121170154D01*
X156155547Y-120920794D01*
X155505306Y-120920226D01*
X154904345Y-121168538D01*
X154444154Y-121627927D01*
X154194794Y-122228453D01*
X154194226Y-122878694D01*
X154442538Y-123479655D01*
X154901927Y-123939846D01*
X155389766Y-124142414D01*
X154904057Y-124343106D01*
X154558801Y-124687759D01*
X154216363Y-124344722D01*
X153615648Y-124095284D01*
X152965205Y-124094716D01*
X152364057Y-124343106D01*
X152018801Y-124687759D01*
X151676363Y-124344722D01*
X151075648Y-124095284D01*
X150425205Y-124094716D01*
X149824057Y-124343106D01*
X149363722Y-124802637D01*
X149114284Y-125403352D01*
X149113716Y-126053795D01*
X149348726Y-126622560D01*
X148479000Y-126622560D01*
X148243683Y-126666838D01*
X148027559Y-126805910D01*
X147882569Y-127018110D01*
X147831560Y-127270000D01*
X146870000Y-127270000D01*
X146870000Y-123707163D01*
X147236443Y-123707163D01*
X147335042Y-123973965D01*
X147944582Y-124200401D01*
X148594377Y-124176341D01*
X149082958Y-123973965D01*
X149181557Y-123707163D01*
X148209000Y-122734605D01*
X147236443Y-123707163D01*
X146870000Y-123707163D01*
X146870000Y-123458510D01*
X147056837Y-123527557D01*
X148029395Y-122555000D01*
X148388605Y-122555000D01*
X149361163Y-123527557D01*
X149627965Y-123428958D01*
X149854401Y-122819418D01*
X149830341Y-122169623D01*
X149627965Y-121681042D01*
X149361163Y-121582443D01*
X148388605Y-122555000D01*
X148029395Y-122555000D01*
X147056837Y-121582443D01*
X146870000Y-121651490D01*
X146870000Y-121402837D01*
X147236443Y-121402837D01*
X148209000Y-122375395D01*
X149181557Y-121402837D01*
X149082958Y-121136035D01*
X148473418Y-120909599D01*
X147823623Y-120933659D01*
X147335042Y-121136035D01*
X147236443Y-121402837D01*
X146870000Y-121402837D01*
X146870000Y-119703694D01*
X149114226Y-119703694D01*
X149362538Y-120304655D01*
X149821927Y-120764846D01*
X150422453Y-121014206D01*
X151072694Y-121014774D01*
X151673655Y-120766462D01*
X152133846Y-120307073D01*
X152383206Y-119706547D01*
X152383774Y-119056306D01*
X152135462Y-118455345D01*
X151676073Y-117995154D01*
X151075547Y-117745794D01*
X150425306Y-117745226D01*
X149824345Y-117993538D01*
X149364154Y-118452927D01*
X149114794Y-119053453D01*
X149114226Y-119703694D01*
X146870000Y-119703694D01*
X146870000Y-117104016D01*
X147529590Y-117104016D01*
X147585271Y-117334611D01*
X148068078Y-117502622D01*
X148578428Y-117473083D01*
X148912729Y-117334611D01*
X148968410Y-117104016D01*
X148249000Y-116384605D01*
X147529590Y-117104016D01*
X146870000Y-117104016D01*
X146870000Y-116024078D01*
X146951378Y-116024078D01*
X146980917Y-116534428D01*
X147119389Y-116868729D01*
X147349984Y-116924410D01*
X148069395Y-116205000D01*
X147349984Y-115485590D01*
X147119389Y-115541271D01*
X146951378Y-116024078D01*
X146870000Y-116024078D01*
X146870000Y-115305984D01*
X147529590Y-115305984D01*
X148249000Y-116025395D01*
X148968410Y-115305984D01*
X148912729Y-115075389D01*
X148429922Y-114907378D01*
X147919572Y-114936917D01*
X147585271Y-115075389D01*
X147529590Y-115305984D01*
X146870000Y-115305984D01*
X146870000Y-113988694D01*
X159020226Y-113988694D01*
X159268538Y-114589655D01*
X159727927Y-115049846D01*
X160328453Y-115299206D01*
X160978694Y-115299774D01*
X161579655Y-115051462D01*
X162039846Y-114592073D01*
X162289206Y-113991547D01*
X162289774Y-113341306D01*
X162041462Y-112740345D01*
X161582073Y-112280154D01*
X160981547Y-112030794D01*
X160331306Y-112030226D01*
X159730345Y-112278538D01*
X159270154Y-112737927D01*
X159020794Y-113338453D01*
X159020226Y-113988694D01*
X146870000Y-113988694D01*
X146870000Y-100018694D01*
X149495226Y-100018694D01*
X149743538Y-100619655D01*
X150202927Y-101079846D01*
X150803453Y-101329206D01*
X151453694Y-101329774D01*
X152054655Y-101081462D01*
X152514846Y-100622073D01*
X152764206Y-100021547D01*
X152764774Y-99371306D01*
X152516462Y-98770345D01*
X152057073Y-98310154D01*
X151456547Y-98060794D01*
X150806306Y-98060226D01*
X150205345Y-98308538D01*
X149745154Y-98767927D01*
X149495794Y-99368453D01*
X149495226Y-100018694D01*
X146870000Y-100018694D01*
X146870000Y-92819047D01*
X147234313Y-93062472D01*
X147860000Y-93186929D01*
X148485687Y-93062472D01*
X149016120Y-92708049D01*
X149370543Y-92177616D01*
X149475486Y-91650030D01*
X150221185Y-91650030D01*
X150397606Y-92266899D01*
X150796663Y-92769298D01*
X151357604Y-93080742D01*
X151479566Y-93105124D01*
X151733000Y-92985777D01*
X151733000Y-91392000D01*
X151987000Y-91392000D01*
X151987000Y-92985777D01*
X152240434Y-93105124D01*
X152362396Y-93080742D01*
X152923337Y-92769298D01*
X153322394Y-92266899D01*
X153498815Y-91650030D01*
X153341012Y-91392000D01*
X151987000Y-91392000D01*
X151733000Y-91392000D01*
X150378988Y-91392000D01*
X150221185Y-91650030D01*
X149475486Y-91650030D01*
X149495000Y-91551929D01*
X149495000Y-90978071D01*
X149475487Y-90879970D01*
X150221185Y-90879970D01*
X150378988Y-91138000D01*
X151733000Y-91138000D01*
X151733000Y-89544223D01*
X151987000Y-89544223D01*
X151987000Y-91138000D01*
X153341012Y-91138000D01*
X153498815Y-90879970D01*
X153322394Y-90263101D01*
X152923337Y-89760702D01*
X152362396Y-89449258D01*
X152240434Y-89424876D01*
X151987000Y-89544223D01*
X151733000Y-89544223D01*
X151479566Y-89424876D01*
X151357604Y-89449258D01*
X150796663Y-89760702D01*
X150397606Y-90263101D01*
X150221185Y-90879970D01*
X149475487Y-90879970D01*
X149370543Y-90352384D01*
X149016120Y-89821951D01*
X148485687Y-89467528D01*
X147860000Y-89343071D01*
X147234313Y-89467528D01*
X146870000Y-89710953D01*
X146870000Y-86819047D01*
X147234313Y-87062472D01*
X147860000Y-87186929D01*
X148485687Y-87062472D01*
X149016120Y-86708049D01*
X149370543Y-86177616D01*
X149475486Y-85650030D01*
X150221185Y-85650030D01*
X150397606Y-86266899D01*
X150796663Y-86769298D01*
X151357604Y-87080742D01*
X151479566Y-87105124D01*
X151733000Y-86985777D01*
X151733000Y-85392000D01*
X151987000Y-85392000D01*
X151987000Y-86985777D01*
X152240434Y-87105124D01*
X152362396Y-87080742D01*
X152923337Y-86769298D01*
X153322394Y-86266899D01*
X153498815Y-85650030D01*
X153341012Y-85392000D01*
X151987000Y-85392000D01*
X151733000Y-85392000D01*
X150378988Y-85392000D01*
X150221185Y-85650030D01*
X149475486Y-85650030D01*
X149495000Y-85551929D01*
X149495000Y-84978071D01*
X149475487Y-84879970D01*
X150221185Y-84879970D01*
X150378988Y-85138000D01*
X151733000Y-85138000D01*
X151733000Y-83544223D01*
X151987000Y-83544223D01*
X151987000Y-85138000D01*
X153341012Y-85138000D01*
X153498815Y-84879970D01*
X153322394Y-84263101D01*
X152923337Y-83760702D01*
X152362396Y-83449258D01*
X152240434Y-83424876D01*
X151987000Y-83544223D01*
X151733000Y-83544223D01*
X151479566Y-83424876D01*
X151357604Y-83449258D01*
X150796663Y-83760702D01*
X150397606Y-84263101D01*
X150221185Y-84879970D01*
X149475487Y-84879970D01*
X149370543Y-84352384D01*
X149016120Y-83821951D01*
X148485687Y-83467528D01*
X147860000Y-83343071D01*
X147234313Y-83467528D01*
X146870000Y-83710953D01*
X146870000Y-69465000D01*
X146855434Y-69391770D01*
X146855499Y-69328200D01*
X146781740Y-68955390D01*
X146691420Y-68736705D01*
X146675989Y-68699342D01*
X146465177Y-68383137D01*
X146269490Y-68187047D01*
X145953719Y-67975586D01*
X145949595Y-67973873D01*
X145895000Y-67951193D01*
X145895000Y-65532000D01*
X157794289Y-65532000D01*
X157051288Y-66275000D01*
M02*
