M48
;DRILL file {KiCad 4.0.7-e2-6376~58~ubuntu16.04.1} date Sat May  5 11:14:30 2018
;FORMAT={-:-/ absolute / inch / decimal}
FMAT,2
INCH,TZ
T1C0.026
T2C0.028
T3C0.031
T4C0.032
T5C0.035
T6C0.039
T7C0.040
T8C0.047
T9C0.060
T10C0.087
%
G90
G05
M72
T1
X5.975Y-2.65
X5.975Y-2.7287
X5.975Y-2.8075
X5.975Y-2.8862
X5.975Y-2.965
X5.975Y-3.0437
X5.975Y-3.1224
X5.975Y-3.2012
X6.5262Y-2.65
X6.5262Y-2.7287
X6.5262Y-2.8075
X6.5262Y-2.8862
X6.5262Y-2.965
X6.5262Y-3.0437
X6.5262Y-3.1224
X6.5262Y-3.2012
T2
X6.4751Y-5.05
X6.4751Y-5.45
T3
X5.925Y-4.1
X5.925Y-4.2
X5.925Y-4.3
X5.925Y-4.4
X5.935Y-4.575
X6.225Y-4.1
X6.225Y-4.2
X6.225Y-4.3
X6.225Y-4.4
X6.725Y-4.6
X6.725Y-4.85
X6.8037Y-4.6
X6.8037Y-4.85
T4
X5.8366Y-4.575
T5
X5.885Y-5.05
X5.935Y-4.95
X5.985Y-5.05
X6.035Y-4.95
X6.085Y-5.05
X6.135Y-4.95
X6.185Y-5.05
X6.235Y-4.95
T6
X5.835Y-4.825
X5.935Y-4.7
X5.95Y-3.925
X6.135Y-4.825
X6.235Y-4.7
X6.25Y-3.75
X6.25Y-3.925
X6.325Y-4.475
X6.55Y-3.75
X6.575Y-3.975
X6.575Y-4.15
X6.575Y-4.325
X6.625Y-4.475
X6.675Y-2.9
X6.675Y-3.2
X6.675Y-3.975
X6.675Y-4.15
X6.675Y-4.325
X6.8Y-2.675
X6.8Y-2.975
X6.8Y-3.725
X6.8Y-4.025
X6.8Y-4.125
X6.8Y-4.425
T7
X6.8Y-3.1
X6.8Y-3.2
X6.8Y-3.3
X6.8Y-3.4
X6.8Y-3.5
X6.8Y-3.6
T8
X5.8213Y-3.3569
X5.8213Y-3.5931
X5.9787Y-3.3569
X5.9787Y-3.5931
X6.4963Y-3.3569
X6.4963Y-3.5931
X6.6537Y-3.3569
X6.6537Y-3.5931
T9
X6.6307Y-5.4533
X6.8307Y-5.4533
T10
X6.6872Y-5.0419
T0
M30
