G04 #@! TF.FileFunction,Soldermask,Bot*
%FSLAX46Y46*%
G04 Gerber Fmt 4.6, Leading zero omitted, Abs format (unit mm)*
G04 Created by KiCad (PCBNEW 4.0.7-e2-6376~58~ubuntu16.04.1) date Sat May  5 11:14:25 2018*
%MOMM*%
%LPD*%
G01*
G04 APERTURE LIST*
%ADD10C,0.100000*%
%ADD11R,2.900000X1.500000*%
%ADD12O,2.900000X1.500000*%
%ADD13O,2.400000X2.900000*%
%ADD14C,4.049980*%
%ADD15R,2.400000X2.400000*%
%ADD16C,2.400000*%
%ADD17R,2.432000X2.127200*%
%ADD18O,2.432000X2.127200*%
%ADD19R,2.940000X2.940000*%
%ADD20C,2.940000*%
%ADD21C,2.398980*%
%ADD22R,1.700000X1.700000*%
%ADD23C,1.700000*%
%ADD24C,2.099260*%
%ADD25R,2.099260X2.099260*%
%ADD26O,2.000000X2.000000*%
G04 APERTURE END LIST*
D10*
D11*
X151065000Y-67310000D03*
D12*
X151065000Y-69310000D03*
X151065000Y-71310000D03*
X151065000Y-73310000D03*
X151065000Y-75310000D03*
X151065000Y-77310000D03*
X151065000Y-79310000D03*
X151065000Y-81310000D03*
X166465000Y-81310000D03*
X166365000Y-79310000D03*
X166465000Y-77310000D03*
X166465000Y-75310000D03*
X166465000Y-73310000D03*
X166465000Y-71310000D03*
X166465000Y-69310000D03*
X166465000Y-67310000D03*
D13*
X147860000Y-85265000D03*
X151860000Y-85265000D03*
X147860000Y-91265000D03*
X151860000Y-91265000D03*
D14*
X159862520Y-134620000D03*
X147993100Y-134620000D03*
D15*
X149479000Y-128270000D03*
D16*
X150749000Y-125730000D03*
X152019000Y-128270000D03*
X153289000Y-125730000D03*
X154559000Y-128270000D03*
X155829000Y-125730000D03*
X157099000Y-128270000D03*
X158369000Y-125730000D03*
D17*
X172720000Y-78740000D03*
D18*
X172720000Y-81280000D03*
X172720000Y-83820000D03*
X172720000Y-86360000D03*
X172720000Y-88900000D03*
X172720000Y-91440000D03*
D13*
X165005000Y-85265000D03*
X169005000Y-85265000D03*
X165005000Y-91265000D03*
X169005000Y-91265000D03*
D19*
X173500000Y-138515000D03*
D20*
X168420000Y-138515000D03*
D21*
X155829000Y-122555000D03*
X148209000Y-122555000D03*
X158750000Y-99695000D03*
X151130000Y-99695000D03*
X150749000Y-119380000D03*
X158369000Y-119380000D03*
X169545000Y-81280000D03*
X169545000Y-73660000D03*
X172720000Y-75565000D03*
X172720000Y-67945000D03*
D22*
X170815000Y-123190000D03*
D23*
X172815000Y-123190000D03*
D22*
X170815000Y-116840000D03*
D23*
X172815000Y-116840000D03*
D22*
X150749000Y-116205000D03*
D23*
X148249000Y-116205000D03*
D21*
X166370000Y-95250000D03*
X158750000Y-95250000D03*
D15*
X169545000Y-105410000D03*
D16*
X167005000Y-105410000D03*
D15*
X169545000Y-100965000D03*
D16*
X167005000Y-100965000D03*
D15*
X169545000Y-109855000D03*
D16*
X167005000Y-109855000D03*
D21*
X168275000Y-113665000D03*
X160655000Y-113665000D03*
X172720000Y-94615000D03*
X172720000Y-102235000D03*
X172720000Y-112395000D03*
X172720000Y-104775000D03*
D24*
X164467540Y-138430520D03*
D25*
X164467540Y-128270520D03*
D26*
X158115000Y-111760000D03*
X158115000Y-109220000D03*
X158115000Y-106680000D03*
X158115000Y-104140000D03*
X150495000Y-104140000D03*
X150495000Y-106680000D03*
X150495000Y-109220000D03*
X150495000Y-111760000D03*
M02*
